<?xml version="1.0" encoding="utf-8"?>
<!-- Generator: Adobe Illustrator 27.0.0, SVG Export Plug-In . SVG Version: 6.00 Build 0)  -->
<svg version="1.1" xmlns="http://www.w3.org/2000/svg" xmlns:xlink="http://www.w3.org/1999/xlink" x="0px" y="0px"
	 viewBox="0 0 393 454" style="enable-background:new 0 0 393 454;" xml:space="preserve">
<g id="Floor">
</g>
<g id="Shadows">
	<path id="Shadow_1_" style="fill:#E0E0E0;" d="M259.06,369.24c0.06-2.07-0.56-4.41-1.59-6.44c0,0,0,0,0,0
		c-0.21-0.42-0.44-0.82-0.68-1.2c-0.01-0.02-0.02-0.04-0.04-0.06c-0.24-0.37-0.48-0.72-0.75-1.05c-0.02-0.03-0.05-0.06-0.07-0.09
		c-0.26-0.32-0.53-0.62-0.8-0.9c-0.02-0.02-0.05-0.05-0.07-0.07c-0.29-0.28-0.58-0.53-0.88-0.75c-0.17-0.12-0.34-0.24-0.51-0.33
		c-0.08-0.05-0.16-0.08-0.23-0.12c-0.09-0.05-0.18-0.1-0.27-0.14c-0.13-0.06-0.26-0.1-0.38-0.14c-0.03-0.01-0.07-0.03-0.1-0.04
		c-0.15-0.04-0.3-0.08-0.44-0.1c-0.01,0-0.02,0-0.03-0.01c-0.61-0.09-1.16,0.01-1.64,0.29c0,0,0,0,0,0v0c0,0-0.01,0-0.01,0l0,0
		c-4.54,2.63-30.71,21.84-42.75,30.5l-5.97,4.18c-0.17,0.11-0.32,0.28-0.44,0.48c-0.02,0.02-0.03,0.05-0.04,0.08
		c-0.05,0.09-0.1,0.19-0.14,0.29c-0.02,0.06-0.04,0.14-0.06,0.21c-0.02,0.09-0.05,0.17-0.07,0.27c-0.01,0.06-0.02,0.12-0.02,0.18
		c-0.27,0.17-0.61,0.38-0.99,0.62l-0.88,0.55c-1.88-2.1-4.16-4.06-6.81-5.82c-8.25-5.5-19.19-8.53-30.8-8.53
		c-11.61,0-22.55,3.03-30.8,8.53c-8.55,5.7-13.26,13.39-13.26,21.67c0,8.27,4.71,15.97,13.26,21.66c8.25,5.5,19.19,8.53,30.8,8.53
		c11.61,0,22.55-3.03,30.8-8.53c8.55-5.7,13.26-13.39,13.26-21.66c0-3.73-0.97-7.34-2.8-10.7l0.79-0.49
		c0.65,0.41,1.24,0.47,1.69,0.19l0.04-0.02c4.09-2.6,43.92-22.19,52.07-27.23c0,0,0,0,0,0c0,0,0,0,0,0l0,0
		C258.39,372.46,259.01,371.14,259.06,369.24z M188.62,425.45c-7.13,4.75-16.73,7.37-27.04,7.37c-10.31,0-19.91-2.62-27.04-7.37
		c-6.12-4.08-9.5-9.1-9.5-14.14c0-5.04,3.37-10.06,9.5-14.14c7.13-4.75,16.73-7.36,27.04-7.36c10.31,0,19.91,2.62,27.04,7.36
		c6.12,4.08,9.5,9.1,9.5,14.14C198.12,416.35,194.75,421.37,188.62,425.45z"/>
	<path id="Shadow" style="fill:#E0E0E0;" d="M265.15,252.86l-40.41-26.98c-2.05-1.37-5.38-1.37-7.44,0L12.04,362.63
		c-2.05,1.37-2.05,3.59,0,4.95l40.41,26.98c2.05,1.37,5.38,1.37,7.43,0l76.92-51.25l11.82,7.93c6.26,4.17,16.41,4.17,22.67,0
		l35.25-23.31c6.26-4.17,6.26-10.93,0-15.1l-11.82-7.93l70.41-47.1C267.2,256.44,267.2,254.23,265.15,252.86z"/>
	<ellipse id="Shadow_15_" style="fill:#E0E0E0;" cx="332.93" cy="354.16" rx="39.62" ry="26.4"/>
</g>
<g id="Plant">
	<g id="Plants_00000051372443830246729820000013923259326278460852_">
		<g id="XMLID_00000010283707849513928810000005791756103765775287_">
			<g id="XMLID_00000152252878933423613570000012394858863980727727_">
				<path id="XMLID_00000011031172702685856990000008212393286668031148_" style="fill:#27DEBF;" d="M355.44,324.35
					c0.01-6.19-1.07-17.6,3.47-28.3c3.29-7.75,9.17-15.28,14.65-14.53c5.1,0.7,5.56,9.74,0.68,15.93
					c-4.87,6.19-11.08,14.76-12.43,28.44l-3.51,10.16L355.44,324.35z"/>
			</g>
			<g id="XMLID_00000007423834436000310020000015020572172710272926_" style="opacity:0.2;">
				<path id="XMLID_00000056407142317099999210000011515898159178724505_" d="M355.44,324.35c0.01-6.19-1.07-17.6,3.47-28.3
					c3.29-7.75,9.17-15.28,14.65-14.53c5.1,0.7,5.56,9.74,0.68,15.93c-4.87,6.19-11.08,14.76-12.43,28.44l-3.51,10.16L355.44,324.35
					z"/>
			</g>
			<g id="XMLID_00000163051250776593323260000014346226068080990385_">
				<path id="XMLID_00000039848930575280261090000017494889780860950197_" style="fill:#FFFFFF;" d="M357.27,328.7
					c0.18-0.04,0.32-0.22,0.31-0.44c-0.62-17.6,4.35-32.21,14.35-42.25c0.16-0.16,0.17-0.43,0.04-0.61
					c-0.14-0.18-0.37-0.2-0.53-0.04c-10.18,10.22-15.24,25.06-14.61,42.93c0.01,0.24,0.18,0.42,0.39,0.41
					C357.23,328.71,357.25,328.71,357.27,328.7z"/>
			</g>
		</g>
		<g id="XMLID_00000064354642109185902000000006554277079563665546_">
			<path id="XMLID_00000054248909182217009420000012633434314113668270_" style="fill:#27DEBF;" d="M354.47,346.48
				c0,0,3.69,2.87,9.43,3.03c5.74,0.16,7.86-3.33,7.86-3.33s-2.92-5.74-6.31-6.95c0,0,5.56,0.44,10.29,3.11c0,0,3.44-0.47,4.1-6.73
				c0,0-2.46-3.32-9.51-4.23c0,0,4.01-1.85,10.2-1.01c0.47,0.14,1.48-7.97,1.64-11.67c0.16-3.69-1.09-3.46-3.61-3.84
				c-2.52-0.37-10.87,0.44-12.22,2.22c-1.35,1.78-1.51,7.19-1.51,7.19s-1.81-2.77-1.77-5.49c0,0-2.56-0.58-5.16,0.94
				c-2.61,1.52-3.45,2.74-3.58,5.06c-0.13,2.31-0.3,5.77,0.51,8.46c0,0-2.38-4.42-2.26-8.27c0,0-1.31,2.49-2.43,5.86
				C349.03,334.2,350.36,342.35,354.47,346.48z"/>
			<g id="XMLID_00000024719634940135528790000000633376517485529483_">
				<path id="XMLID_00000144335347052346155820000013960648840462613646_" style="fill:#FFFFFF;" d="M354.57,346.9
					c0.12-0.04,0.22-0.14,0.26-0.28c3.27-11.56,18.64-26.78,24.51-29.06c0.19-0.08,0.3-0.32,0.23-0.54
					c-0.07-0.22-0.26-0.36-0.47-0.27c-5.99,2.33-21.65,17.84-24.98,29.61c-0.06,0.23,0.04,0.47,0.24,0.54
					C354.42,346.92,354.5,346.92,354.57,346.9z"/>
			</g>
		</g>
	</g>
</g>
<g id="Device">
	<g id="Device_1_">
		<g id="Monitor_2_">
			<g id="XMLID_403_">
				<g id="XMLID_412_">
					<path id="XMLID_413_" style="fill:#37474F;" d="M171.31,347.32l30.37-20.26c3.13-2.09,4.7-4.82,4.7-7.55
						c0-2.73,0.01-4.88,0.01-4.88l-28.58-18.72c-1.67-1.11-3.02-3.82-3.02-6.04v-43.21l-53.04,35.37l0,43.21
						c0,2.22,1.35,4.93,3.02,6.04l23.87,16.04C154.89,351.49,165.04,351.49,171.31,347.32z"/>
				</g>
				<path id="XMLID_411_" style="fill:#263238;" d="M134.47,332.89v4.85l-9.72-6.47c-1.66-1.11-3.02-3.81-3.02-6.04v-43.2
					l10.11-6.73c0.21,2.96,0.44,6.02,0.65,9l-7.09,4.73v33.76c0,2.24,1.34,4.93,3.02,6.04L134.47,332.89z"/>
				<path id="XMLID_410_" style="fill:#455A64;" d="M125.4,322.81c0,2.22,1.35,4.93,3.02,6.04l20.21,13.6
					c6.26,4.17,16.41,4.17,22.67,0l30.38-20.26c6.26-4.17,6.26-10.93,0-15.1l-20.22-13.61c-1.67-1.11-3.02-3.82-3.02-6.04l0-33.76
					l-53.05,35.37V322.81z"/>
				<path id="XMLID_407_" style="opacity:0.15;" d="M187.62,297.58L187.62,297.58l-6.16-4.11c-1.67-1.11-3.02-3.82-3.02-6.04v-33.76
					l-53.05,35.37v33.76c0,2.22,1.35,4.93,3.02,6.04l6.05,4.03L187.62,297.58z"/>
				<path id="XMLID_405_" style="fill:#37474F;" d="M206.38,314.63c0,0,0,2.13,0,4.87c0,2.74-1.57,5.46-4.7,7.55l-30.37,20.25
					c-3,2.01-6.89,3.02-10.82,3.1v-4.85c3.93-0.06,7.82-1.11,10.82-3.1l30.37-20.27C204.81,320.11,206.38,317.37,206.38,314.63z"/>
			</g>
			<path id="XMLID_401_" style="fill:#455A64;" d="M40.23,369.42c1.96,1.3,5.24,1.23,7.32-0.16
				c26.08-17.37,179.07-119.3,205.14-136.67c2.09-1.39,3.78-4.77,3.78-7.55V17.83c0-2.78-1.59-6.09-3.54-7.4
				c-1.96-1.3-5.24-1.23-7.32,0.16L40.46,147.26c-2.09,1.39-3.78,4.77-3.78,7.55l0,207.21C36.68,364.8,38.27,368.11,40.23,369.42z"
				/>
			<path id="XMLID_398_" style="fill:#37474F;" d="M47.55,369.26l205.14-136.67c2.09-1.39,3.78-4.77,3.78-7.55V17.83
				c0-2.78-1.69-3.91-3.78-2.52L47.55,151.98c-2.09,1.39-3.78,4.77-3.78,7.55l0,207.21C43.77,369.52,45.46,370.65,47.55,369.26z"/>
			<path id="XMLID_346_" style="fill:#27DEBF;" d="M50.86,339.37l0-177.12c0-1.67,1.02-3.7,2.27-4.53L247.11,28.48
				c1.25-0.83,2.27-0.16,2.27,1.51l0.01,177.12c0,1.67-1.01,3.7-2.27,4.53L53.13,340.88C51.87,341.71,50.86,341.04,50.86,339.37z"/>
			<path id="XMLID_313_" style="opacity:0.7;fill:#FFFFFF;" d="M50.86,339.37l0-177.12c0-1.67,1.02-3.7,2.27-4.53L247.11,28.48
				c1.25-0.83,2.27-0.16,2.27,1.51l0.01,177.12c0,1.67-1.01,3.7-2.27,4.53L53.13,340.88C51.87,341.71,50.86,341.04,50.86,339.37z"/>
			<path style="fill:#27DEBF;" d="M149.73,292.54c-0.41,0-0.8-0.11-1.14-0.34c-0.81-0.54-1.25-1.63-1.25-3.08
				c0-2.81,1.65-6.11,3.76-7.52l0,0c1.09-0.72,2.13-0.82,2.94-0.29c0.81,0.54,1.25,1.63,1.25,3.08c0,2.81-1.65,6.11-3.76,7.52
				C150.91,292.33,150.29,292.54,149.73,292.54z M152.9,281.97c-0.41,0-0.88,0.17-1.37,0.49l0,0c-1.84,1.22-3.33,4.21-3.33,6.66
				c0,1.08,0.29,1.87,0.82,2.22c0.53,0.35,1.27,0.25,2.08-0.29c1.84-1.22,3.33-4.21,3.33-6.66c0-1.08-0.29-1.87-0.82-2.22
				C153.4,282.03,153.16,281.97,152.9,281.97z"/>
		</g>
	</g>
</g>
<g id="Window">
	<g id="Window_00000146492516985110118640000014088687970871006614_">
		<g>
			<g>
				<path style="fill:#F0F0F0;" d="M283.08,61.81L83.29,194.76l0,169.92c0,2.26,2.12,3.69,3.82,2.55l3.56-2.37l188.68-125.54
					c2.05-1.37,3.73-4.69,3.73-7.44V61.81z"/>
				<path style="fill:#E0E0E0;" d="M282.22,63.52v168.35c0,2.38-1.51,5.39-3.3,6.58L90.24,364l-3.56,2.37
					c-0.26,0.17-0.54,0.26-0.84,0.26c-0.43,0-0.86-0.2-1.18-0.56c-0.33-0.37-0.51-0.87-0.51-1.4l0-169.35L282.22,63.52
					 M283.08,61.81L83.29,194.76l0,169.92c0,1.72,1.22,2.95,2.55,2.95c0.42,0,0.86-0.12,1.26-0.4l3.56-2.37l188.68-125.54
					c2.05-1.37,3.73-4.69,3.73-7.44V61.81L283.08,61.81z"/>
			</g>
			<polygon style="opacity:0.8;fill:#455A64;" points="278.34,58.65 78.54,191.59 83.29,194.76 283.08,61.81 			"/>
			<path style="fill:#EBEBEB;" d="M84.63,367.27c0,0-1.34-0.76-1.34-2.59l0-165.03c0-1.35,0-4.89,0-4.89l-4.75-3.17l-0.01,168.98
				c0,0.21,0.01,0.42,0.04,0.63c0.17,1.39,0.88,2.63,1.94,3.33l3.92,2.62L84.63,367.27L84.63,367.27z"/>
		</g>
		<g>
			<g>
				<path style="fill:#27DEBF;" d="M78.54,191.67V180.2c0-1.37,0.83-3.04,1.85-3.73L276.48,46.03c1.02-0.69,2.69-0.7,3.71-0.01
					l1.02,0.68c1.03,0.68,1.86,2.35,1.86,3.72l0,11.48L83.29,194.83L78.54,191.67z"/>
				<path style="opacity:0.3;" d="M78.54,191.67V180.2c0-1.37,0.83-3.04,1.85-3.73L276.48,46.03c1.02-0.69,2.69-0.7,3.71-0.01
					l1.02,0.68c1.03,0.68,1.86,2.35,1.86,3.72l0,11.48L83.29,194.83L78.54,191.67z"/>
				<path style="fill:#27DEBF;" d="M83.29,183.37c0-1.37,0.83-3.04,1.85-3.73L281.22,49.19c1.02-0.69,1.85-0.14,1.85,1.23l0,11.48
					L83.29,194.83L83.29,183.37z"/>
				<path style="opacity:0.4;" d="M83.29,183.37c0-1.37,0.83-3.04,1.85-3.73L281.22,49.19c1.02-0.69,1.85-0.14,1.85,1.23l0,11.48
					L83.29,194.83L83.29,183.37z"/>
				<path style="fill:#27DEBF;" d="M83.83,181.25c-0.33,0.67-0.54,1.44-0.54,2.12v11.46l-4.75-3.16V180.2
					c0-0.68,0.21-1.44,0.54-2.11L83.83,181.25z"/>
				<path style="opacity:0.5;" d="M83.83,181.25c-0.33,0.67-0.54,1.44-0.54,2.12v11.46l-4.75-3.16V180.2c0-0.68,0.21-1.44,0.54-2.11
					L83.83,181.25z"/>
			</g>
			<g>
				<path style="fill:#FAFAFA;" d="M274.36,61.38c0,1.28,0.78,1.8,1.74,1.16c0.96-0.64,1.74-2.2,1.74-3.49s-0.78-1.8-1.74-1.16
					C275.14,58.53,274.36,60.09,274.36,61.38z"/>
				<path style="fill:#FAFAFA;" d="M267.38,66.02c0,1.28,0.78,1.8,1.74,1.16c0.96-0.64,1.74-2.2,1.74-3.49s-0.78-1.8-1.74-1.16
					C268.16,63.18,267.38,64.74,267.38,66.02z"/>
				<path style="fill:#FAFAFA;" d="M260.41,70.67c0,1.28,0.78,1.8,1.74,1.16c0.96-0.64,1.74-2.2,1.74-3.49
					c0-1.28-0.78-1.8-1.74-1.16C261.19,67.83,260.41,69.39,260.41,70.67z"/>
			</g>
		</g>
		<g>
			<path style="fill:#FAFAFA;" d="M83.29,194.83l0,169.84c0,2.26,2.12,3.69,3.82,2.55l3.56-2.37l43.66-29.05V160.87L83.29,194.83
				L83.29,194.83z"/>
			<polygon style="fill:#FAFAFA;" points="137.82,163.74 137.82,328.7 278.89,234.72 278.89,69.75 			"/>
			<g>
				<path style="fill:#27DEBF;" d="M122.65,180.8l-32.56,21.71c-0.6,0.4-1.09,1.38-1.09,2.18l0,3.91c0,0.8,0.49,1.13,1.09,0.73
					l32.56-21.71c0.6-0.4,1.09-1.38,1.09-2.18l0-3.91C123.74,180.73,123.25,180.4,122.65,180.8z"/>
				<path style="opacity:0.8;fill:#FAFAFA;" d="M122.65,180.8l-32.56,21.71c-0.6,0.4-1.09,1.38-1.09,2.18l0,3.91
					c0,0.8,0.49,1.13,1.09,0.73l32.56-21.71c0.6-0.4,1.09-1.38,1.09-2.18l0-3.91C123.74,180.73,123.25,180.4,122.65,180.8z"/>
				<path style="fill:#455A64;" d="M129.89,182.35l-0.96-1.07c0.19-0.56,0.3-1.17,0.3-1.77c0-0.9-0.26-1.6-0.72-1.9
					c-0.35-0.23-0.76-0.21-1.17,0.06c-0.85,0.56-1.51,2.14-1.51,3.6c0,0.9,0.26,1.6,0.72,1.9c0.16,0.11,0.33,0.16,0.51,0.16
					c0.21,0,0.44-0.07,0.65-0.22c0.32-0.21,0.61-0.57,0.85-1.01l0.79,0.87c0.07,0.08,0.17,0.12,0.26,0.12c0.1,0,0.2-0.04,0.27-0.13
					C130.05,182.8,130.05,182.52,129.89,182.35z M127.35,182.36c-0.17,0.11-0.31,0.13-0.41,0.06c-0.16-0.1-0.34-0.47-0.34-1.15
					c0-1.13,0.52-2.44,1.13-2.84c0.1-0.07,0.19-0.1,0.27-0.1c0.05,0,0.1,0.01,0.14,0.04c0.16,0.1,0.34,0.47,0.34,1.15
					C128.48,180.65,127.97,181.95,127.35,182.36z"/>
			</g>
			<g>
				<g>
					<g>
						<g>
							<path style="fill:#455A64;" d="M89.79,220.81l-0.73,0.49c-0.04,0.03-0.08,0-0.08-0.07v-2.28c0-0.07,0.03-0.14,0.08-0.17
								l0.73-0.49c0.04-0.03,0.08,0,0.08,0.07v2.28C89.86,220.71,89.83,220.78,89.79,220.81z"/>
						</g>
						<g>
							<path style="fill:#455A64;" d="M90.88,220.08l-0.73,0.49c-0.04,0.03-0.08,0-0.08-0.07v-2.28c0-0.07,0.03-0.14,0.08-0.17
								l0.73-0.49c0.04-0.03,0.08,0,0.08,0.07v2.28C90.96,219.98,90.92,220.05,90.88,220.08z"/>
						</g>
						<g>
							<path style="fill:#455A64;" d="M91.98,219.35l-0.73,0.49c-0.04,0.03-0.08,0-0.08-0.07v-2.28c0-0.07,0.03-0.14,0.08-0.17
								l0.73-0.49c0.04-0.03,0.08,0,0.08,0.07v2.28C92.05,219.25,92.02,219.33,91.98,219.35z"/>
						</g>
						<g>
							<path style="fill:#455A64;" d="M89.79,223.75l-0.73,0.49c-0.04,0.03-0.08,0-0.08-0.07v-2.28c0-0.07,0.03-0.14,0.08-0.17
								l0.73-0.49c0.04-0.03,0.08,0,0.08,0.07v2.28C89.86,223.65,89.83,223.73,89.79,223.75z"/>
						</g>
						<g>
							<path style="fill:#455A64;" d="M90.88,223.03l-0.73,0.49c-0.04,0.03-0.08,0-0.08-0.07v-2.28c0-0.07,0.03-0.14,0.08-0.17
								l0.73-0.49c0.04-0.03,0.08,0,0.08,0.07v2.28C90.96,222.92,90.92,223,90.88,223.03z"/>
						</g>
						<g>
							<path style="fill:#455A64;" d="M91.98,222.3l-0.73,0.49c-0.04,0.03-0.08,0-0.08-0.07v-2.28c0-0.07,0.03-0.14,0.08-0.17
								l0.73-0.49c0.04-0.03,0.08,0,0.08,0.07v2.28C92.05,222.19,92.02,222.27,91.98,222.3z"/>
						</g>
					</g>
					<g>
						<g>
							<path style="fill:#455A64;" d="M89.9,231.53L89,230.9c-0.03-0.02-0.03-0.12,0-0.19l0.9-1.83c0.04-0.09,0.11-0.08,0.11,0.02
								v2.46C90.01,231.46,89.95,231.56,89.9,231.53z"/>
						</g>
						<g>
							<path style="fill:#455A64;" d="M89.52,230.13l1.18-0.79v0.65l-1.18,0.79c-0.1,0.07-0.18-0.02-0.18-0.2
								C89.34,230.4,89.42,230.2,89.52,230.13z"/>
							<polygon style="fill:#455A64;" points="90.93,229.2 91.33,228.93 91.33,229.58 90.93,229.84 							"/>
							<path style="fill:#455A64;" d="M92.42,228.53v2.39c0,0.18-0.08,0.38-0.18,0.45c-0.1,0.07-0.18-0.02-0.18-0.2v-2.06l-0.5,0.33
								v-0.65l0.68-0.46C92.34,228.26,92.42,228.35,92.42,228.53z"/>
						</g>
					</g>
					<g>
						<g>
							<path style="fill:#455A64;" d="M90.25,236.88c-0.84,0.67-1.41,2.5-1.25,3.86c0.15,1.24,0.79,1.2,0.86,1.77
								c0.01,0.06,0.04,0.09,0.08,0.06l0.8-0.52c0.04-0.03,0.07-0.1,0.08-0.17c0.08-0.76,0.9-1.68,0.91-3.53
								C91.74,236.93,91.06,236.24,90.25,236.88z"/>
						</g>
						<path style="fill:#455A64;" d="M90.73,243.54l-0.77,0.51c-0.05,0.04-0.1,0-0.1-0.08v-0.82c0-0.08,0.04-0.18,0.1-0.21
							l0.77-0.51c0.05-0.04,0.1,0,0.1,0.08v0.82C90.83,243.41,90.78,243.51,90.73,243.54z"/>
					</g>
					<path style="fill:#455A64;" d="M90.44,217.61c-0.71,0.68-1.28,2.08-1.4,3.42c-0.07,0.78,0.02,1.42,0.2,1.87l-0.26,1.56
						c-0.02,0.13,0.04,0.2,0.1,0.12l0.78-0.98c0.32,0.12,0.72,0.01,1.13-0.38c0.71-0.68,1.29-2.08,1.4-3.42
						C92.58,217.6,91.6,216.51,90.44,217.61z M90.72,222.72c-0.72,0.48-1.3-0.17-1.3-1.44c0-1.27,0.58-2.7,1.3-3.17
						c0.72-0.48,1.3,0.17,1.3,1.44C92.02,220.82,91.43,222.24,90.72,222.72z"/>
					<path style="fill:#455A64;" d="M90.44,247.68c-0.71,0.68-1.28,2.08-1.4,3.42c-0.07,0.78,0.02,1.42,0.2,1.87l-0.26,1.56
						c-0.02,0.13,0.04,0.2,0.1,0.12l0.78-0.98c0.32,0.12,0.72,0.01,1.13-0.38c0.71-0.68,1.29-2.08,1.4-3.42
						C92.58,247.67,91.6,246.58,90.44,247.68z M90.72,252.78c-0.72,0.48-1.3-0.17-1.3-1.44c0-1.27,0.58-2.7,1.3-3.17
						c0.72-0.48,1.3,0.17,1.3,1.44C92.02,250.88,91.43,252.31,90.72,252.78z"/>
					<g>
						<path style="fill:#455A64;" d="M91.54,258.69c0,0.67-0.31,1.42-0.69,1.67c-0.38,0.25-0.69-0.09-0.69-0.76
							c0-0.67,0.31-1.42,0.69-1.67C91.23,257.68,91.54,258.02,91.54,258.69z"/>
						<path style="fill:#455A64;" d="M92.71,258.93c0,0.45-0.2,0.95-0.46,1.12c-0.25,0.17-0.46-0.06-0.46-0.51
							c0-0.45,0.2-0.95,0.46-1.12C92.51,258.26,92.71,258.48,92.71,258.93z"/>
						<path style="fill:#455A64;" d="M91.66,263.49l-1.62,1.08v-2.36c0-0.5,0.26-1.08,0.59-1.29l0.45-0.3
							c0.32-0.22,0.59,0.01,0.59,0.51V263.49z"/>
						<path style="fill:#455A64;" d="M92.33,260.32l-0.45,0.3v2.73l0.84-0.56v-2.12C92.72,260.33,92.55,260.18,92.33,260.32z"/>
						<path style="fill:#455A64;" d="M88.99,261.41c0,0.45,0.2,0.67,0.46,0.51c0.25-0.17,0.46-0.67,0.46-1.12
							c0-0.45-0.2-0.67-0.46-0.51C89.19,260.47,88.99,260.97,88.99,261.41z"/>
						<path style="fill:#455A64;" d="M89.37,262.29l0.45-0.3v2.73l-0.84,0.56v-2.12C88.98,262.83,89.15,262.44,89.37,262.29z"/>
					</g>
				</g>
				<g>
					<path style="fill:#E0E0E0;" d="M96.9,215.47l19.07-12.7c0.51-0.34,0.93-0.1,0.93,0.54c0,0.64-0.42,1.44-0.93,1.78l-19.07,12.7
						c-0.51,0.34-0.93,0.1-0.93-0.54C95.97,216.61,96.38,215.81,96.9,215.47z"/>
					<path style="fill:#E0E0E0;" d="M96.9,225.82l19.07-12.7c0.51-0.34,0.93-0.1,0.93,0.54c0,0.64-0.42,1.44-0.93,1.78l-19.07,12.7
						c-0.51,0.34-0.93,0.1-0.93-0.54C95.97,226.96,96.38,226.16,96.9,225.82z"/>
					<path style="fill:#E0E0E0;" d="M96.9,236.18l19.07-12.7c0.51-0.34,0.93-0.1,0.93,0.54c0,0.64-0.42,1.44-0.93,1.78L96.9,238.5
						c-0.51,0.34-0.93,0.1-0.93-0.54C95.97,237.32,96.38,236.52,96.9,236.18z"/>
					<path style="fill:#E0E0E0;" d="M96.9,246.53l19.07-12.7c0.51-0.34,0.93-0.1,0.93,0.54c0,0.64-0.42,1.44-0.93,1.78l-19.07,12.7
						c-0.51,0.34-0.93,0.1-0.93-0.54C95.97,247.67,96.38,246.88,96.9,246.53z"/>
					<path style="fill:#E0E0E0;" d="M96.9,256.89l19.07-12.7c0.51-0.34,0.93-0.1,0.93,0.54c0,0.64-0.42,1.44-0.93,1.78l-19.07,12.7
						c-0.51,0.34-0.93,0.1-0.93-0.54C95.97,258.03,96.38,257.23,96.9,256.89z"/>
					<path style="fill:#455A64;" d="M100.39,265.35l19.07-12.7c0.51-0.34,0.93-0.1,0.93,0.54c0,0.64-0.42,1.44-0.93,1.78
						l-19.07,12.7c-0.51,0.34-0.93,0.1-0.93-0.54S99.87,265.69,100.39,265.35z"/>
					<path style="fill:#E0E0E0;" d="M100.39,272.34l19.07-12.7c0.51-0.34,0.93-0.1,0.93,0.54c0,0.64-0.42,1.44-0.93,1.78
						l-19.07,12.7c-0.51,0.34-0.93,0.1-0.93-0.54C99.46,273.48,99.87,272.68,100.39,272.34z"/>
					<path style="fill:#E0E0E0;" d="M100.39,279.34l19.07-12.7c0.51-0.34,0.93-0.1,0.93,0.54c0,0.64-0.42,1.44-0.93,1.78
						l-19.07,12.7c-0.51,0.34-0.93,0.1-0.93-0.54C99.46,280.48,99.87,279.68,100.39,279.34z"/>
					<path style="fill:#E0E0E0;" d="M104.1,283.78l19.07-12.7c0.51-0.34,0.93-0.1,0.93,0.54c0,0.64-0.42,1.44-0.93,1.78l-19.07,12.7
						c-0.51,0.34-0.93,0.1-0.93-0.54C103.17,284.92,103.58,284.12,104.1,283.78z"/>
					<g>
						<path style="fill:#455A64;" d="M99.64,289.8l1.55-3.15c0.06-0.12,0.06-0.28,0-0.32l-1.55-1.09c-0.07-0.05-0.18,0.11-0.18,0.28
							v4.24C99.46,289.93,99.56,289.95,99.64,289.8z"/>
					</g>
					<path style="fill:#E0E0E0;" d="M104.1,290.75l19.07-12.7c0.51-0.34,0.93-0.1,0.93,0.54c0,0.64-0.42,1.44-0.93,1.78l-19.07,12.7
						c-0.51,0.34-0.93,0.1-0.93-0.54S103.58,291.1,104.1,290.75z"/>
					<g>
						<path style="fill:#455A64;" d="M99.64,296.77l1.55-3.15c0.06-0.12,0.06-0.28,0-0.32l-1.55-1.09
							c-0.07-0.05-0.18,0.11-0.18,0.28v4.24C99.46,296.9,99.56,296.93,99.64,296.77z"/>
					</g>
					<path style="fill:#E0E0E0;" d="M104.1,297.73l19.07-12.7c0.51-0.34,0.93-0.1,0.93,0.54c0,0.64-0.42,1.44-0.93,1.78l-19.07,12.7
						c-0.51,0.34-0.93,0.1-0.93-0.54C103.17,298.86,103.58,298.07,104.1,297.73z"/>
					<g>
						<path style="fill:#455A64;" d="M99.64,303.74l1.55-3.15c0.06-0.12,0.06-0.28,0-0.32l-1.55-1.09
							c-0.07-0.05-0.18,0.11-0.18,0.28v4.24C99.46,303.87,99.56,303.9,99.64,303.74z"/>
					</g>
					<path style="fill:#E0E0E0;" d="M104.1,304.7l19.07-12.7c0.51-0.34,0.93-0.1,0.93,0.54c0,0.64-0.42,1.44-0.93,1.78l-19.07,12.7
						c-0.51,0.34-0.93,0.1-0.93-0.54C103.17,305.84,103.58,305.04,104.1,304.7z"/>
					<g>
						<path style="fill:#455A64;" d="M99.64,310.72l1.55-3.15c0.06-0.12,0.06-0.28,0-0.32l-1.55-1.09
							c-0.07-0.05-0.18,0.11-0.18,0.28v4.24C99.46,310.84,99.56,310.87,99.64,310.72z"/>
					</g>
					<path style="fill:#E0E0E0;" d="M104.1,311.67l19.07-12.7c0.51-0.34,0.93-0.1,0.93,0.54c0,0.64-0.42,1.44-0.93,1.78l-19.07,12.7
						c-0.51,0.34-0.93,0.1-0.93-0.54C103.17,312.81,103.58,312.01,104.1,311.67z"/>
					<g>
						<path style="fill:#455A64;" d="M99.64,317.69l1.55-3.15c0.06-0.12,0.06-0.28,0-0.32l-1.55-1.09
							c-0.07-0.05-0.18,0.11-0.18,0.28v4.24C99.46,317.82,99.56,317.84,99.64,317.69z"/>
					</g>
					<path style="fill:#E0E0E0;" d="M104.1,318.64l19.07-12.7c0.51-0.34,0.93-0.1,0.93,0.54c0,0.64-0.42,1.44-0.93,1.78l-19.07,12.7
						c-0.51,0.34-0.93,0.1-0.93-0.54C103.17,319.78,103.58,318.98,104.1,318.64z"/>
					<g>
						<path style="fill:#455A64;" d="M99.64,324.66l1.55-3.15c0.06-0.12,0.06-0.28,0-0.32l-1.55-1.09
							c-0.07-0.05-0.18,0.11-0.18,0.28v4.24C99.46,324.79,99.56,324.81,99.64,324.66z"/>
					</g>
					<path style="fill:#E0E0E0;" d="M104.1,325.61l19.07-12.7c0.51-0.34,0.93-0.1,0.93,0.54c0,0.64-0.42,1.44-0.93,1.78l-19.07,12.7
						c-0.51,0.34-0.93,0.1-0.93-0.54C103.17,326.75,103.58,325.95,104.1,325.61z"/>
					<g>
						<path style="fill:#455A64;" d="M99.64,331.63l1.55-3.15c0.06-0.12,0.06-0.28,0-0.32l-1.55-1.09
							c-0.07-0.05-0.18,0.11-0.18,0.28v4.24C99.46,331.76,99.56,331.78,99.64,331.63z"/>
					</g>
					<path style="fill:#E0E0E0;" d="M104.1,332.58l19.07-12.7c0.51-0.34,0.93-0.1,0.93,0.54c0,0.64-0.42,1.44-0.93,1.78l-19.07,12.7
						c-0.51,0.34-0.93,0.1-0.93-0.54C103.17,333.72,103.58,332.92,104.1,332.58z"/>
					<g>
						<path style="fill:#455A64;" d="M99.64,338.6l1.55-3.15c0.06-0.12,0.06-0.28,0-0.32l-1.55-1.09c-0.07-0.05-0.18,0.11-0.18,0.28
							v4.24C99.46,338.73,99.56,338.75,99.64,338.6z"/>
					</g>
				</g>
			</g>
			<g>
				<g>
					<path style="fill:#F0F0F0;" d="M142.23,186.36l62.66-41.75c0.51-0.34,0.93-1.17,0.93-1.86v-18.43c0-0.68-0.42-0.96-0.93-0.62
						l-62.66,41.74c-0.51,0.34-0.93,1.17-0.93,1.86v18.44C141.3,186.43,141.72,186.7,142.23,186.36z"/>
					<g id="XMLID_00000165202440988969122120000013492440055611958666_">
						<g id="XMLID_00000057143762736607227880000016850147940948251559_">
							<path style="fill:#455A64;" d="M147.7,173.35c0-0.01,0-0.02,0.01-0.04l0.41-1.98l-0.57,0.38c-0.01,0.01-0.03,0.01-0.04,0
								c-0.01-0.01-0.02-0.03-0.02-0.05v-0.36c0-0.03,0.01-0.05,0.02-0.07c0.01-0.03,0.02-0.04,0.04-0.05l0.91-0.61
								c0.01-0.01,0.03-0.01,0.04,0c0.01,0.01,0.02,0.03,0.02,0.05v0.31c0,0.04-0.01,0.1-0.03,0.19l-0.41,1.98
								c-0.01,0.02-0.01,0.05-0.02,0.07c-0.01,0.02-0.02,0.04-0.03,0.05l-0.27,0.18c-0.01,0.01-0.02,0.01-0.03,0
								C147.7,173.39,147.7,173.37,147.7,173.35z"/>
							<path style="fill:#455A64;" d="M149.22,170.02c0.09-0.06,0.18-0.09,0.25-0.09c0.07,0,0.13,0.03,0.17,0.09
								c0.05,0.05,0.08,0.13,0.1,0.22c0.02,0.1,0.03,0.21,0.04,0.32c0,0.1,0,0.2,0,0.3s0,0.21,0,0.3c0,0.12-0.02,0.25-0.04,0.38
								c-0.02,0.13-0.06,0.25-0.1,0.36c-0.04,0.11-0.1,0.22-0.17,0.31c-0.07,0.09-0.15,0.17-0.25,0.24
								c-0.1,0.06-0.18,0.09-0.25,0.09c-0.07,0-0.12-0.03-0.17-0.09c-0.05-0.05-0.08-0.13-0.1-0.23c-0.02-0.1-0.04-0.21-0.04-0.32
								c0-0.09,0-0.19,0-0.3c0-0.11,0-0.21,0-0.31c0-0.12,0.02-0.25,0.04-0.38c0.02-0.13,0.06-0.25,0.1-0.36
								c0.05-0.11,0.1-0.22,0.17-0.31C149.04,170.16,149.12,170.08,149.22,170.02z M149.42,171.38c0-0.19,0-0.38,0-0.57
								c0-0.06-0.01-0.1-0.01-0.15c-0.01-0.04-0.02-0.08-0.03-0.1c-0.02-0.02-0.04-0.04-0.06-0.04c-0.03,0-0.06,0.01-0.09,0.03
								c-0.04,0.03-0.07,0.06-0.1,0.09c-0.03,0.04-0.05,0.08-0.06,0.12c-0.02,0.04-0.03,0.09-0.03,0.15
								c-0.01,0.05-0.01,0.11-0.01,0.16c-0.01,0.19-0.01,0.38,0,0.57c0,0.06,0,0.11,0.01,0.15c0.01,0.04,0.02,0.08,0.03,0.1
								c0.02,0.02,0.04,0.04,0.06,0.04c0.03,0,0.06-0.01,0.1-0.03c0.04-0.03,0.07-0.06,0.09-0.09c0.03-0.04,0.05-0.08,0.06-0.12
								c0.02-0.05,0.03-0.09,0.03-0.15C149.42,171.5,149.42,171.44,149.42,171.38z"/>
							<path style="fill:#455A64;" d="M150.54,169.64c0,0.09,0,0.17,0,0.26c0,0.07-0.01,0.14-0.02,0.2
								c-0.01,0.07-0.03,0.13-0.06,0.19c-0.02,0.06-0.06,0.12-0.09,0.16c-0.04,0.05-0.08,0.09-0.13,0.12
								c-0.05,0.03-0.09,0.05-0.13,0.05c-0.04,0-0.07-0.01-0.09-0.04c-0.02-0.03-0.04-0.07-0.06-0.12
								c-0.01-0.05-0.02-0.11-0.02-0.17c0-0.04,0-0.08,0-0.12c0-0.04,0-0.08,0-0.13c0-0.07,0.01-0.14,0.02-0.2
								c0.01-0.07,0.03-0.13,0.06-0.19c0.02-0.06,0.05-0.11,0.09-0.16c0.04-0.05,0.08-0.09,0.13-0.12c0.05-0.03,0.09-0.05,0.13-0.05
								c0.04,0,0.07,0.01,0.09,0.04c0.03,0.03,0.04,0.07,0.06,0.11C150.53,169.51,150.53,169.57,150.54,169.64z M151.01,168.92
								c0.01-0.03,0.02-0.05,0.03-0.07c0.01-0.02,0.02-0.03,0.04-0.04l0.16-0.1c0.01-0.01,0.03-0.01,0.03,0
								c0.01,0.01,0.01,0.02,0.01,0.04c0,0,0,0.01,0,0.02c0,0.01,0,0.02,0,0.02l-0.94,2.83c-0.01,0.03-0.02,0.05-0.03,0.07
								c-0.01,0.02-0.02,0.03-0.04,0.04l-0.16,0.1c-0.01,0.01-0.03,0.01-0.03,0c-0.01-0.01-0.01-0.02-0.01-0.04c0,0,0-0.01,0-0.02
								c0-0.01,0-0.02,0.01-0.02L151.01,168.92z M150.16,170.13c0,0.06,0.01,0.1,0.02,0.12c0.01,0.02,0.03,0.02,0.06,0.01
								c0.03-0.02,0.05-0.05,0.06-0.08c0.01-0.04,0.02-0.09,0.02-0.15c0-0.08,0-0.15,0-0.22c0-0.06-0.01-0.1-0.02-0.12
								c-0.01-0.02-0.03-0.02-0.06,0c-0.03,0.02-0.05,0.05-0.06,0.08c-0.01,0.04-0.02,0.09-0.02,0.15
								C150.15,169.98,150.15,170.06,150.16,170.13z M151.42,170.23c0,0.09,0,0.17,0,0.26c0,0.07-0.01,0.14-0.02,0.2
								c-0.01,0.06-0.03,0.13-0.06,0.19c-0.02,0.06-0.06,0.12-0.09,0.16c-0.04,0.05-0.08,0.09-0.13,0.12
								c-0.05,0.03-0.09,0.05-0.13,0.05c-0.04,0-0.07-0.01-0.09-0.04c-0.02-0.03-0.04-0.07-0.06-0.12
								c-0.01-0.05-0.02-0.11-0.02-0.17c0-0.04,0-0.09,0-0.12c0-0.04,0-0.08,0-0.13c0-0.07,0.01-0.14,0.02-0.2
								c0.01-0.07,0.03-0.13,0.06-0.19c0.02-0.06,0.05-0.11,0.09-0.16c0.04-0.05,0.08-0.09,0.13-0.12c0.05-0.03,0.09-0.05,0.13-0.05
								c0.04,0,0.07,0.01,0.09,0.04c0.02,0.03,0.04,0.07,0.06,0.12C151.41,170.11,151.42,170.17,151.42,170.23z M151.04,170.72
								c0,0.06,0.01,0.1,0.02,0.12c0.01,0.02,0.03,0.02,0.06,0c0.03-0.02,0.05-0.05,0.06-0.08c0.01-0.04,0.02-0.09,0.02-0.15
								c0-0.08,0-0.15,0-0.22c0-0.06-0.01-0.1-0.02-0.12c-0.01-0.02-0.03-0.02-0.06-0.01c-0.03,0.02-0.05,0.05-0.06,0.08
								c-0.01,0.04-0.02,0.09-0.02,0.15C151.04,170.58,151.04,170.65,151.04,170.72z"/>
						</g>
						<g id="XMLID_00000063603343953511714510000008549315809726961539_">
							<path id="XMLID_00000048481127584041177760000016261097242657559713_" style="fill:#455A64;" d="M147.69,167.67l-0.63-1.12
								c-0.69,1.35-1.22,2.97-1.49,4.62l1.02-0.09C146.79,169.86,147.18,168.67,147.69,167.67z"/>
							<path id="XMLID_00000010292701231733692800000010747554247959821727_" style="fill:#455A64;" d="M149.46,165.46v-1.9
								c-0.9,0.6-1.73,1.67-2.4,2.99l0.63,1.12C148.19,166.69,148.8,165.9,149.46,165.46z"/>
							<path id="XMLID_00000165227132833343940030000001393001270293739911_" style="fill:#455A64;" d="M146.44,172.84
								c0-0.58,0.05-1.17,0.15-1.76l-1.02,0.09c-0.13,0.79-0.2,1.6-0.2,2.38c0,0.78,0.07,1.49,0.2,2.11l1.02-1.26
								C146.49,173.95,146.44,173.42,146.44,172.84z"/>
							<path id="XMLID_00000070102925820317892190000015361968960845736328_" style="fill:#27DEBF;" d="M153.35,165.99
								c-0.27-1.29-0.8-2.21-1.49-2.64c-0.68-0.42-1.51-0.39-2.4,0.21v1.9c0.66-0.44,1.28-0.47,1.78-0.15
								c0.51,0.32,0.9,0.99,1.1,1.95c0.1,0.46,0.15,0.98,0.15,1.56c0,0.58-0.05,1.17-0.15,1.76c-0.2,1.22-0.59,2.41-1.1,3.41
								c-0.5,0.98-1.11,1.77-1.78,2.21c-0.66,0.44-1.28,0.47-1.78,0.15c-0.51-0.32-0.9-0.99-1.1-1.95l-1.02,1.26
								c0.27,1.29,0.8,2.21,1.49,2.64c0.68,0.42,1.51,0.39,2.4-0.21c0.9-0.6,1.73-1.67,2.4-2.99c0.69-1.35,1.22-2.97,1.49-4.62
								c0.13-0.79,0.2-1.6,0.2-2.38S153.48,166.61,153.35,165.99z"/>
						</g>
					</g>
					<path style="fill:#455A64;" d="M159.67,160.8l19.07-12.7c0.51-0.34,0.93-0.1,0.93,0.54c0,0.64-0.42,1.44-0.93,1.78l-19.07,12.7
						c-0.51,0.34-0.93,0.1-0.93-0.54C158.74,161.94,159.16,161.14,159.67,160.8z"/>
					<path style="fill:#E0E0E0;" d="M159.67,165.48l33.01-21.99c0.51-0.34,0.93-0.1,0.93,0.54c0,0.64-0.42,1.44-0.93,1.78
						l-33.02,21.99c-0.51,0.34-0.93,0.1-0.93-0.54C158.74,166.62,159.16,165.82,159.67,165.48z"/>
				</g>
				<g>
					<path style="fill:#F0F0F0;" d="M210.23,141.05l62.66-41.75c0.51-0.34,0.93-1.17,0.93-1.86V79.01c0-0.68-0.42-0.96-0.93-0.62
						l-62.66,41.74c-0.51,0.34-0.93,1.17-0.93,1.86v18.44C209.3,141.12,209.72,141.39,210.23,141.05z"/>
					<g id="XMLID_00000115492863893415788070000005608292123448794011_">
						<g id="XMLID_00000049208685891100056790000017896966538707703696_">
							<path style="fill:#455A64;" d="M216,126.35c0-0.13,0.02-0.26,0.05-0.38c0.03-0.13,0.07-0.24,0.12-0.35
								c0.05-0.11,0.11-0.2,0.18-0.28c0.07-0.08,0.14-0.15,0.21-0.2c0.07-0.05,0.14-0.07,0.21-0.08c0.07-0.01,0.13,0.01,0.18,0.05
								c0.05,0.04,0.09,0.1,0.12,0.18c0.03,0.08,0.05,0.19,0.05,0.32c0,0.07,0,0.13-0.01,0.19c-0.01,0.06-0.02,0.12-0.03,0.18
								c-0.01,0.06-0.03,0.11-0.04,0.17c-0.02,0.05-0.03,0.11-0.05,0.16l-0.36,1.13c-0.01,0.02-0.01,0.03-0.02,0.06
								c-0.01,0.02-0.02,0.04-0.04,0.05l-0.3,0.2c-0.01,0.01-0.02,0.01-0.03,0c-0.01-0.01-0.01-0.03-0.01-0.05c0-0.01,0-0.02,0-0.03
								c0-0.01,0-0.02,0.01-0.02l0.24-0.77c-0.06,0.03-0.12,0.04-0.18,0.03c-0.06-0.01-0.11-0.03-0.15-0.07
								c-0.04-0.04-0.08-0.1-0.1-0.18C216.02,126.57,216,126.47,216,126.35z M216.77,125.84c0-0.04-0.01-0.08-0.02-0.11
								c-0.01-0.03-0.03-0.05-0.05-0.06c-0.02-0.01-0.04-0.02-0.07-0.02c-0.02,0-0.05,0.01-0.08,0.03
								c-0.03,0.02-0.05,0.04-0.08,0.07c-0.03,0.03-0.05,0.07-0.07,0.11c-0.02,0.04-0.03,0.08-0.05,0.13
								c-0.01,0.04-0.02,0.09-0.02,0.13c0,0.05,0.01,0.08,0.02,0.11c0.01,0.03,0.03,0.05,0.05,0.06c0.02,0.01,0.04,0.02,0.07,0.02
								c0.03,0,0.05-0.01,0.08-0.03c0.03-0.02,0.05-0.04,0.08-0.07c0.02-0.03,0.05-0.07,0.07-0.11c0.02-0.04,0.03-0.08,0.05-0.13
								C216.76,125.93,216.77,125.89,216.77,125.84z"/>
							<path style="fill:#455A64;" d="M217.84,124.29c0.09-0.06,0.18-0.09,0.25-0.09c0.07,0,0.12,0.03,0.17,0.09
								c0.05,0.05,0.08,0.13,0.1,0.22c0.02,0.1,0.03,0.21,0.04,0.32c0,0.1,0,0.2,0,0.3c0,0.11,0,0.21,0,0.3
								c0,0.12-0.02,0.25-0.04,0.38c-0.02,0.13-0.06,0.25-0.1,0.36c-0.05,0.11-0.1,0.22-0.17,0.31c-0.07,0.09-0.15,0.17-0.25,0.24
								c-0.1,0.06-0.18,0.09-0.25,0.09c-0.07,0-0.12-0.03-0.17-0.09c-0.05-0.05-0.08-0.13-0.1-0.23c-0.02-0.1-0.03-0.21-0.04-0.32
								c0-0.09,0-0.19,0-0.3c0-0.11,0-0.21,0-0.31c0-0.12,0.02-0.25,0.04-0.38c0.02-0.13,0.06-0.25,0.1-0.36
								c0.05-0.11,0.1-0.22,0.17-0.31C217.66,124.43,217.74,124.35,217.84,124.29z M218.04,125.65c0.01-0.19,0.01-0.38,0-0.57
								c0-0.06-0.01-0.1-0.01-0.15c-0.01-0.04-0.02-0.08-0.03-0.1c-0.02-0.02-0.04-0.04-0.06-0.04c-0.03,0-0.06,0.01-0.09,0.03
								c-0.04,0.03-0.07,0.06-0.1,0.09c-0.03,0.04-0.05,0.08-0.06,0.12c-0.02,0.04-0.03,0.09-0.03,0.15
								c-0.01,0.05-0.01,0.11-0.01,0.16c-0.01,0.19-0.01,0.38,0,0.57c0,0.06,0.01,0.11,0.01,0.15c0.01,0.04,0.02,0.08,0.03,0.1
								c0.02,0.02,0.04,0.04,0.06,0.04c0.03,0,0.06-0.01,0.1-0.03c0.04-0.03,0.07-0.06,0.09-0.09c0.03-0.04,0.05-0.08,0.06-0.12
								c0.02-0.05,0.03-0.09,0.03-0.15C218.03,125.77,218.04,125.71,218.04,125.65z"/>
							<path style="fill:#455A64;" d="M219.15,123.91c0,0.09,0,0.17,0,0.26c0,0.07-0.01,0.14-0.02,0.2
								c-0.01,0.07-0.03,0.13-0.06,0.19c-0.02,0.06-0.06,0.12-0.09,0.16c-0.04,0.05-0.08,0.09-0.13,0.12
								c-0.05,0.03-0.09,0.05-0.13,0.05c-0.04,0-0.07-0.01-0.09-0.04c-0.02-0.03-0.04-0.07-0.06-0.12
								c-0.01-0.05-0.02-0.11-0.02-0.17c0-0.04,0-0.08,0-0.12c0-0.04,0-0.08,0-0.13c0-0.07,0.01-0.14,0.02-0.2
								c0.01-0.07,0.03-0.13,0.06-0.19c0.02-0.06,0.05-0.11,0.09-0.16c0.04-0.05,0.08-0.09,0.13-0.12c0.05-0.03,0.09-0.05,0.13-0.05
								c0.04,0,0.07,0.01,0.09,0.04c0.03,0.03,0.04,0.07,0.06,0.11C219.14,123.78,219.15,123.84,219.15,123.91z M219.63,123.19
								c0.01-0.03,0.02-0.05,0.03-0.07c0.01-0.02,0.02-0.03,0.04-0.04l0.16-0.1c0.01-0.01,0.03-0.01,0.03,0
								c0.01,0.01,0.01,0.02,0.01,0.04c0,0,0,0.01,0,0.02c0,0.01,0,0.02-0.01,0.02l-0.94,2.83c-0.01,0.03-0.02,0.05-0.03,0.07
								c-0.01,0.02-0.02,0.03-0.04,0.04l-0.16,0.1c-0.01,0.01-0.03,0.01-0.03,0c-0.01-0.01-0.01-0.02-0.01-0.04c0,0,0-0.01,0-0.02
								c0-0.01,0-0.02,0.01-0.02L219.63,123.19z M218.78,124.4c0,0.06,0.01,0.1,0.02,0.12c0.01,0.02,0.03,0.02,0.06,0.01
								c0.03-0.02,0.05-0.05,0.06-0.08c0.01-0.04,0.02-0.09,0.02-0.15c0-0.08,0-0.15,0-0.22c0-0.06-0.01-0.1-0.02-0.12
								c-0.01-0.02-0.03-0.02-0.06,0c-0.03,0.02-0.05,0.05-0.06,0.08c-0.01,0.04-0.02,0.09-0.02,0.15
								C218.77,124.25,218.77,124.33,218.78,124.4z M220.04,124.5c0,0.09,0,0.17,0,0.26c0,0.07-0.01,0.14-0.02,0.2
								c-0.01,0.06-0.03,0.13-0.06,0.19c-0.03,0.06-0.06,0.12-0.09,0.16c-0.04,0.05-0.08,0.09-0.13,0.12
								c-0.05,0.03-0.09,0.05-0.13,0.05c-0.04,0-0.07-0.01-0.09-0.04c-0.02-0.03-0.04-0.07-0.06-0.12
								c-0.01-0.05-0.02-0.11-0.02-0.17c0-0.04,0-0.09,0-0.12c0-0.04,0-0.08,0-0.13c0-0.07,0.01-0.14,0.02-0.2
								c0.01-0.07,0.03-0.13,0.06-0.19c0.02-0.06,0.05-0.11,0.09-0.16c0.04-0.05,0.08-0.09,0.13-0.12c0.05-0.03,0.09-0.05,0.13-0.05
								c0.04,0,0.07,0.01,0.09,0.04c0.02,0.03,0.04,0.07,0.06,0.12C220.03,124.38,220.03,124.44,220.04,124.5z M219.66,124.99
								c0,0.06,0.01,0.1,0.02,0.12c0.01,0.02,0.03,0.02,0.06,0c0.03-0.02,0.05-0.05,0.06-0.08c0.01-0.04,0.02-0.09,0.02-0.15
								c0-0.08,0-0.15,0-0.22c0-0.06-0.01-0.1-0.02-0.12c-0.01-0.02-0.03-0.02-0.06-0.01c-0.03,0.02-0.05,0.05-0.06,0.08
								c-0.01,0.04-0.02,0.09-0.02,0.15C219.66,124.85,219.66,124.92,219.66,124.99z"/>
						</g>
						<g id="XMLID_00000056401586039400987050000004513982946988724110_">
							<path id="XMLID_00000017490903703218876120000006060258441267396753_" style="fill:#455A64;" d="M218.03,119.77v-1.9
								c-0.9,0.6-1.73,1.67-2.4,2.99l0.63,1.12C216.75,121,217.36,120.21,218.03,119.77z"/>
							<path id="XMLID_00000032633801080688884280000014594289293598956460_" style="fill:#27DEBF;" d="M221.92,120.3
								c-0.27-1.29-0.8-2.21-1.49-2.64c-0.68-0.42-1.51-0.39-2.4,0.21v1.9c0.66-0.44,1.28-0.47,1.78-0.15
								c0.51,0.32,0.9,0.99,1.1,1.95c0.1,0.46,0.15,0.98,0.15,1.56c0,0.58-0.05,1.17-0.15,1.76c-0.2,1.22-0.59,2.41-1.1,3.41
								c-0.5,0.98-1.11,1.77-1.78,2.22c-0.66,0.44-1.28,0.47-1.78,0.15c-0.51-0.32-0.9-0.99-1.1-1.95c-0.1-0.46-0.15-0.98-0.15-1.56
								c0-0.58,0.05-1.17,0.15-1.76c0.2-1.22,0.59-2.41,1.1-3.41l-0.63-1.12c-0.69,1.35-1.22,2.97-1.49,4.62
								c-0.13,0.79-0.2,1.6-0.2,2.38c0,0.78,0.07,1.49,0.2,2.11c0.27,1.29,0.8,2.21,1.49,2.64c0.68,0.42,1.51,0.39,2.4-0.21
								c0.9-0.6,1.73-1.67,2.4-2.99l0,0l0,0c0.69-1.35,1.22-2.97,1.49-4.62c0.13-0.79,0.2-1.6,0.2-2.38S222.05,120.92,221.92,120.3z
								"/>
						</g>
					</g>
					<path style="fill:#455A64;" d="M228.22,115.1l19.07-12.7c0.51-0.34,0.93-0.1,0.93,0.54c0,0.64-0.42,1.44-0.93,1.78l-19.07,12.7
						c-0.51,0.34-0.93,0.1-0.93-0.54C227.29,116.24,227.7,115.44,228.22,115.1z"/>
					<path style="fill:#E0E0E0;" d="M228.22,119.79l33.01-21.99c0.51-0.34,0.93-0.1,0.93,0.54c0,0.64-0.42,1.44-0.93,1.78
						l-33.02,21.99c-0.51,0.34-0.93,0.1-0.93-0.54C227.29,120.93,227.7,120.13,228.22,119.79z"/>
				</g>
			</g>
			<g>
				<path style="fill:#455A64;" d="M148.62,191.42l13.37-8.94c0.51-0.34,0.93-0.1,0.93,0.54c0,0.64-0.42,1.44-0.93,1.78l-13.37,8.94
					c-0.51,0.34-0.93,0.1-0.93-0.54C147.69,192.56,148.1,191.76,148.62,191.42z"/>
				<path style="fill:#E0E0E0;" d="M273.36,114.08L273.36,114.08L273.36,114.08 M272.96,114.34l0,117.86c0,0.33-0.25,0.83-0.5,1
					l-130.3,86.81l0-117.86c0-0.33,0.25-0.83,0.5-1l1.63-1.09c0.77-0.52,1.36-1.68,1.36-2.72v-6.82c0-0.33,0.25-0.83,0.5-1
					l18.71-12.46v6.34c0,1.15,0.69,1.76,1.37,1.76c0.28,0,0.57-0.09,0.84-0.28L272.96,114.34 M165.25,176.81L165.25,176.81
					L165.25,176.81 M273.31,113.1c-0.12,0-0.27,0.05-0.42,0.15l-106.25,70.79c-0.15,0.1-0.29,0.15-0.42,0.15
					c-0.3,0-0.51-0.28-0.51-0.77v-6.82c0-0.49-0.21-0.77-0.51-0.77c-0.12,0-0.27,0.05-0.42,0.15l-19.07,12.7
					c-0.51,0.34-0.93,1.17-0.93,1.86v6.82c0,0.68-0.42,1.52-0.93,1.86l-1.63,1.09c-0.51,0.34-0.93,1.17-0.93,1.86l0,118.34
					c0,0.49,0.21,0.77,0.51,0.77c0.12,0,0.27-0.05,0.42-0.15l130.66-87.05c0.51-0.34,0.93-1.17,0.93-1.86l0-118.34
					C273.82,113.38,273.61,113.1,273.31,113.1L273.31,113.1z"/>
				<g>
					<path style="fill:#E0E0E0;" d="M149.71,207.3c-0.16,0-0.32-0.05-0.46-0.14c-0.31-0.21-0.49-0.62-0.49-1.12v-4.49
						c0-0.85,0.5-1.86,1.14-2.29l10.36-6.89c0.38-0.25,0.78-0.28,1.09-0.07c0.31,0.21,0.49,0.62,0.49,1.12v4.49
						c0,0.86-0.5,1.86-1.14,2.29l-10.36,6.89C150.13,207.23,149.91,207.3,149.71,207.3z M150.34,200.11
						c-0.38,0.25-0.71,0.92-0.71,1.43v4.49c0,0.17,0.04,0.25,0.06,0.27c0.02,0.01,0.1,0.01,0.23-0.07l10.36-6.89
						c0.38-0.25,0.72-0.92,0.72-1.43v-4.49c0-0.17-0.04-0.25-0.06-0.27c-0.02-0.01-0.1-0.01-0.23,0.07L150.34,200.11z"/>
					<path style="fill:#E0E0E0;" d="M150.95,201.97l6.75-4.52c0.34-0.23,0.62-0.07,0.62,0.36c0,0.43-0.28,0.96-0.62,1.19l-6.75,4.52
						c-0.34,0.23-0.62,0.07-0.62-0.36C150.33,202.72,150.61,202.19,150.95,201.97z"/>
					<g>
						<path style="fill:#455A64;" d="M159.28,196.7l0.56,0.92c0.02,0.03,0.06,0.01,0.08-0.06l0.56-1.66c0.03-0.08,0-0.15-0.04-0.12
							l-1.12,0.75C159.27,196.55,159.25,196.66,159.28,196.7z"/>
					</g>
				</g>
				<g>
					<g>
						<g>
							<path style="fill:#27DEBF;" d="M148.28,250.83c0.49-0.33,0.9-0.06,0.9,0.6s-0.4,1.46-0.9,1.79c-0.49,0.33-0.9,0.06-0.9-0.6
								S147.78,251.16,148.28,250.83z"/>
						</g>
						<g>
							<path style="fill:#27DEBF;" d="M155.25,241.54c0.49-0.33,0.9-0.06,0.9,0.6s-0.4,1.46-0.9,1.79c-0.49,0.33-0.9,0.06-0.9-0.6
								C154.36,242.67,154.76,241.87,155.25,241.54z"/>
						</g>
						<g>
							<path style="fill:#27DEBF;" d="M162.23,236.89c0.49-0.33,0.9-0.06,0.9,0.6s-0.4,1.46-0.9,1.79c-0.49,0.33-0.9,0.06-0.9-0.6
								S161.73,237.22,162.23,236.89z"/>
						</g>
						<g>
							<path style="fill:#27DEBF;" d="M169.2,234.29c0.49-0.33,0.9-0.06,0.9,0.6s-0.4,1.46-0.9,1.79c-0.49,0.33-0.9,0.06-0.9-0.6
								S168.71,234.62,169.2,234.29z"/>
						</g>
						<g>
							<path style="fill:#27DEBF;" d="M176.19,225.92c0.49-0.33,0.9-0.06,0.9,0.6c0,0.66-0.4,1.46-0.9,1.79
								c-0.49,0.33-0.9,0.06-0.9-0.6S175.69,226.25,176.19,225.92z"/>
						</g>
						<g>
							<path style="fill:#27DEBF;" d="M183.15,222.95c0.49-0.33,0.9-0.06,0.9,0.6s-0.4,1.46-0.9,1.79c-0.49,0.33-0.9,0.06-0.9-0.6
								S182.66,223.28,183.15,222.95z"/>
						</g>
						<g>
							<path style="fill:#27DEBF;" d="M190.13,213.66c0.49-0.33,0.9-0.06,0.9,0.6c0,0.66-0.4,1.46-0.9,1.79
								c-0.49,0.33-0.9,0.06-0.9-0.6S189.63,213.99,190.13,213.66z"/>
						</g>
						<g>
							<path style="fill:#27DEBF;" d="M197.1,211.34c0.49-0.33,0.9-0.06,0.9,0.6s-0.4,1.46-0.9,1.79c-0.49,0.33-0.9,0.06-0.9-0.6
								S196.61,211.67,197.1,211.34z"/>
						</g>
						<g>
							<path style="fill:#27DEBF;" d="M204.08,185.78c0.49-0.33,0.9-0.06,0.9,0.6s-0.4,1.46-0.9,1.79c-0.49,0.33-0.9,0.06-0.9-0.6
								S203.58,186.11,204.08,185.78z"/>
						</g>
						<g>
							<path style="fill:#27DEBF;" d="M211.05,199.72c0.49-0.33,0.9-0.06,0.9,0.6s-0.4,1.46-0.9,1.79c-0.49,0.33-0.9,0.06-0.9-0.6
								S210.56,200.05,211.05,199.72z"/>
						</g>
						<g>
							<path style="fill:#27DEBF;" d="M218.03,199.72c0.49-0.33,0.9-0.06,0.9,0.6s-0.4,1.46-0.9,1.79c-0.49,0.33-0.9,0.06-0.9-0.6
								S217.53,200.05,218.03,199.72z"/>
						</g>
						<g>
							<path style="fill:#27DEBF;" d="M225,199.72c0.49-0.33,0.9-0.06,0.9,0.6s-0.4,1.46-0.9,1.79s-0.9,0.06-0.9-0.6
								S224.51,200.05,225,199.72z"/>
						</g>
						<g>
							<path style="fill:#27DEBF;" d="M231.97,185.78c0.49-0.33,0.9-0.06,0.9,0.6s-0.4,1.46-0.9,1.79c-0.49,0.33-0.9,0.06-0.9-0.6
								S231.48,186.11,231.97,185.78z"/>
						</g>
						<g>
							<path style="fill:#27DEBF;" d="M238.95,183.11c0.49-0.33,0.9-0.06,0.9,0.6s-0.4,1.46-0.9,1.79c-0.49,0.33-0.9,0.06-0.9-0.6
								S238.45,183.44,238.95,183.11z"/>
						</g>
						<g>
							<path style="fill:#27DEBF;" d="M245.95,171.84c0.49-0.33,0.9-0.06,0.9,0.6s-0.4,1.46-0.9,1.79c-0.49,0.33-0.9,0.06-0.9-0.6
								S245.45,172.17,245.95,171.84z"/>
						</g>
						<g>
							<path style="fill:#27DEBF;" d="M252.9,171.84c0.49-0.33,0.9-0.06,0.9,0.6s-0.4,1.46-0.9,1.79c-0.49,0.33-0.9,0.06-0.9-0.6
								S252.4,172.17,252.9,171.84z"/>
						</g>
						<g>
							<path style="fill:#27DEBF;" d="M259.87,171.84c0.49-0.33,0.9-0.06,0.9,0.6s-0.4,1.46-0.9,1.79c-0.49,0.33-0.9,0.06-0.9-0.6
								S259.38,172.17,259.87,171.84z"/>
						</g>
						<g>
							<path style="fill:#27DEBF;" d="M266.85,167.19c0.49-0.33,0.9-0.06,0.9,0.6s-0.4,1.46-0.9,1.79c-0.49,0.33-0.9,0.06-0.9-0.6
								S266.35,167.52,266.85,167.19z"/>
						</g>
					</g>
					<g>
						<path style="fill:#27DEBF;" d="M148.26,252.29c-0.05,0-0.1-0.02-0.14-0.06c-0.09-0.09-0.1-0.25-0.02-0.35l7.04-9.34
							c0.02-0.02,0.03-0.04,0.05-0.05l6.92-4.61l6.96-2.61l6.94-8.32c0.02-0.03,0.05-0.05,0.08-0.06l6.92-2.94l6.94-9.25
							c0.03-0.04,0.06-0.06,0.1-0.08l6.86-2.29l6.94-25.43c0.03-0.09,0.1-0.16,0.18-0.17c0.08-0.01,0.17,0.04,0.21,0.12l6.91,13.82
							l6.87-0.01l6.83,0.01l6.91-13.82c0.03-0.05,0.07-0.09,0.12-0.11l6.91-2.65l6.93-11.2c0.04-0.06,0.1-0.1,0.17-0.1l13.89,0
							l6.93-4.61c0.1-0.07,0.23-0.03,0.29,0.09c0.06,0.12,0.02,0.27-0.08,0.34l-6.98,4.65c-0.03,0.02-0.07,0.03-0.11,0.03l-13.84,0
							l-6.91,11.17c-0.03,0.04-0.06,0.07-0.11,0.09l-6.9,2.64l-6.93,13.86c-0.04,0.08-0.11,0.12-0.19,0.12l0,0l-6.96-0.01
							l-6.99,0.01l0,0c-0.08,0-0.15-0.05-0.19-0.12l-6.73-13.45l-6.83,25.02c-0.02,0.08-0.08,0.14-0.15,0.16l-6.91,2.3l-6.93,9.24
							c-0.02,0.03-0.05,0.06-0.09,0.07l-6.93,2.95l-6.94,8.33c-0.03,0.03-0.06,0.05-0.09,0.06l-6.97,2.61l-6.85,4.57l-7.02,9.31
							C148.38,252.26,148.32,252.29,148.26,252.29z"/>
					</g>
				</g>
				<g>
					<path style="fill:#E0E0E0;" d="M148.28,257.17c-0.15,0-0.29-0.09-0.37-0.25c-0.12-0.24-0.05-0.54,0.16-0.68l118.57-79
						c0.2-0.14,0.47-0.06,0.59,0.18c0.12,0.24,0.05,0.54-0.16,0.68l-118.57,79C148.43,257.15,148.35,257.17,148.28,257.17z"/>
					<g>
						<g>
							<g>
								<g>
									<path style="fill:#27DEBF;" d="M148.28,246.19c0.49-0.33,0.9-0.06,0.9,0.6s-0.4,1.46-0.9,1.79c-0.49,0.33-0.9,0.06-0.9-0.6
										S147.78,246.52,148.28,246.19z"/>
								</g>
								<g>
									<path style="fill:#27DEBF;" d="M155.25,232.25c0.49-0.33,0.9-0.06,0.9,0.6s-0.4,1.46-0.9,1.79c-0.49,0.33-0.9,0.06-0.9-0.6
										S154.76,232.58,155.25,232.25z"/>
								</g>
								<g>
									<path style="fill:#27DEBF;" d="M162.23,230.51c0.49-0.33,0.9-0.06,0.9,0.6s-0.4,1.46-0.9,1.79c-0.49,0.33-0.9,0.06-0.9-0.6
										C161.33,231.64,161.73,230.84,162.23,230.51z"/>
								</g>
								<g>
									<path style="fill:#27DEBF;" d="M169.2,213.66c0.49-0.33,0.9-0.06,0.9,0.6c0,0.66-0.4,1.46-0.9,1.79
										c-0.49,0.33-0.9,0.06-0.9-0.6S168.71,213.99,169.2,213.66z"/>
								</g>
								<g>
									<path style="fill:#27DEBF;" d="M176.19,218.31c0.49-0.33,0.9-0.06,0.9,0.6c0,0.66-0.4,1.46-0.9,1.79
										c-0.49,0.33-0.9,0.06-0.9-0.6S175.69,218.64,176.19,218.31z"/>
								</g>
								<g>
									<path style="fill:#27DEBF;" d="M183.15,215.98c0.49-0.33,0.9-0.06,0.9,0.6c0,0.66-0.4,1.46-0.9,1.79
										c-0.49,0.33-0.9,0.06-0.9-0.6S182.66,216.31,183.15,215.98z"/>
								</g>
								<g>
									<path style="fill:#27DEBF;" d="M190.13,209.01c0.49-0.33,0.9-0.06,0.9,0.6s-0.4,1.46-0.9,1.79c-0.49,0.33-0.9,0.06-0.9-0.6
										S189.63,209.34,190.13,209.01z"/>
								</g>
								<g>
									<path style="fill:#27DEBF;" d="M197.1,199.72c0.49-0.33,0.9-0.06,0.9,0.6s-0.4,1.46-0.9,1.79c-0.49,0.33-0.9,0.06-0.9-0.6
										S196.61,200.05,197.1,199.72z"/>
								</g>
								<g>
									<path style="fill:#27DEBF;" d="M204.08,197.4c0.49-0.33,0.9-0.06,0.9,0.6s-0.4,1.46-0.9,1.79c-0.49,0.33-0.9,0.06-0.9-0.6
										S203.58,197.73,204.08,197.4z"/>
								</g>
								<g>
									<path style="fill:#27DEBF;" d="M211.05,190.43c0.49-0.33,0.9-0.06,0.9,0.6s-0.4,1.46-0.9,1.79c-0.49,0.33-0.9,0.06-0.9-0.6
										S210.56,190.76,211.05,190.43z"/>
								</g>
								<g>
									<path style="fill:#27DEBF;" d="M218.03,190.43c0.49-0.33,0.9-0.06,0.9,0.6s-0.4,1.46-0.9,1.79c-0.49,0.33-0.9,0.06-0.9-0.6
										S217.53,190.76,218.03,190.43z"/>
								</g>
								<g>
									<path style="fill:#27DEBF;" d="M225,171.84c0.49-0.33,0.9-0.06,0.9,0.6s-0.4,1.46-0.9,1.79c-0.49,0.33-0.9,0.06-0.9-0.6
										S224.51,172.17,225,171.84z"/>
								</g>
								<g>
									<path style="fill:#27DEBF;" d="M231.98,181.07c0.49-0.33,0.9-0.06,0.9,0.6s-0.4,1.46-0.9,1.79c-0.49,0.33-0.9,0.06-0.9-0.6
										S231.48,181.4,231.98,181.07z"/>
								</g>
								<g>
									<path style="fill:#27DEBF;" d="M238.95,171.84c0.49-0.33,0.9-0.06,0.9,0.6s-0.4,1.46-0.9,1.79c-0.49,0.33-0.9,0.06-0.9-0.6
										S238.45,172.17,238.95,171.84z"/>
								</g>
								<g>
									<path style="fill:#27DEBF;" d="M245.92,167.19c0.49-0.33,0.9-0.06,0.9,0.6s-0.4,1.46-0.9,1.79c-0.49,0.33-0.9,0.06-0.9-0.6
										S245.43,167.52,245.92,167.19z"/>
								</g>
								<g>
									<path style="fill:#27DEBF;" d="M252.9,167.19c0.49-0.33,0.9-0.06,0.9,0.6s-0.4,1.46-0.9,1.79c-0.49,0.33-0.9,0.06-0.9-0.6
										C252,168.32,252.4,167.52,252.9,167.19z"/>
								</g>
								<g>
									<path style="fill:#27DEBF;" d="M259.87,162.54c0.49-0.33,0.9-0.06,0.9,0.6s-0.4,1.46-0.9,1.79c-0.49,0.33-0.9,0.06-0.9-0.6
										S259.38,162.87,259.87,162.54z"/>
								</g>
								<g>
									<path style="fill:#27DEBF;" d="M266.85,162.54c0.49-0.33,0.9-0.06,0.9,0.6s-0.4,1.46-0.9,1.79c-0.49,0.33-0.9,0.06-0.9-0.6
										S266.35,162.87,266.85,162.54z"/>
								</g>
							</g>
							<g>
								<path style="fill:#27DEBF;" d="M148.28,247.63c-0.04,0-0.07-0.01-0.11-0.03c-0.1-0.07-0.14-0.22-0.08-0.34l7.02-13.97
									c0.03-0.06,0.08-0.1,0.14-0.12l6.82-1.68l6.93-16.74c0.03-0.06,0.07-0.11,0.13-0.13c0.06-0.02,0.12-0.01,0.17,0.02l6.9,4.6
									l6.83-2.28l6.93-6.93l6.96-9.27c0.03-0.04,0.06-0.06,0.1-0.08l6.93-2.31l6.94-6.93c0.04-0.04,0.09-0.06,0.14-0.06h6.83
									l6.92-18.44c0.03-0.08,0.09-0.13,0.16-0.15c0.07-0.01,0.15,0.02,0.2,0.08l6.81,9.08l6.81-9.08
									c0.02-0.02,0.03-0.04,0.06-0.05l7-4.66c0.03-0.02,0.07-0.03,0.11-0.03h6.92l6.9-4.6c0.03-0.02,0.07-0.03,0.11-0.03h6.98
									c0.12,0,0.21,0.11,0.21,0.25s-0.1,0.25-0.21,0.25h-6.92l-6.9,4.6c-0.03,0.02-0.07,0.03-0.11,0.03h-6.92l-6.92,4.61
									l-6.95,9.26c-0.08,0.11-0.24,0.11-0.33,0l-6.75-9l-6.84,18.23c-0.03,0.09-0.11,0.15-0.2,0.15h-6.89l-6.91,6.91
									c-0.02,0.02-0.05,0.04-0.08,0.05l-6.91,2.3l-6.94,9.24l-6.99,6.99c-0.02,0.02-0.05,0.04-0.08,0.05l-6.97,2.33
									c-0.06,0.02-0.12,0.01-0.17-0.02l-6.78-4.52l-6.87,16.61c-0.03,0.07-0.08,0.12-0.15,0.14l-6.83,1.68l-6.98,13.88
									C148.42,247.59,148.35,247.63,148.28,247.63z"/>
							</g>
						</g>
						<g style="opacity:0.3;">
							<g>
								<g>
									<path d="M148.28,246.19c0.49-0.33,0.9-0.06,0.9,0.6s-0.4,1.46-0.9,1.79c-0.49,0.33-0.9,0.06-0.9-0.6
										S147.78,246.52,148.28,246.19z"/>
								</g>
								<g>
									<path d="M155.25,232.25c0.49-0.33,0.9-0.06,0.9,0.6s-0.4,1.46-0.9,1.79c-0.49,0.33-0.9,0.06-0.9-0.6
										S154.76,232.58,155.25,232.25z"/>
								</g>
								<g>
									<path d="M162.23,230.51c0.49-0.33,0.9-0.06,0.9,0.6s-0.4,1.46-0.9,1.79c-0.49,0.33-0.9,0.06-0.9-0.6
										C161.33,231.64,161.73,230.84,162.23,230.51z"/>
								</g>
								<g>
									<path d="M169.2,213.66c0.49-0.33,0.9-0.06,0.9,0.6c0,0.66-0.4,1.46-0.9,1.79c-0.49,0.33-0.9,0.06-0.9-0.6
										S168.71,213.99,169.2,213.66z"/>
								</g>
								<g>
									<path d="M176.19,218.31c0.49-0.33,0.9-0.06,0.9,0.6c0,0.66-0.4,1.46-0.9,1.79c-0.49,0.33-0.9,0.06-0.9-0.6
										S175.69,218.64,176.19,218.31z"/>
								</g>
								<g>
									<path d="M183.15,215.98c0.49-0.33,0.9-0.06,0.9,0.6c0,0.66-0.4,1.46-0.9,1.79c-0.49,0.33-0.9,0.06-0.9-0.6
										S182.66,216.31,183.15,215.98z"/>
								</g>
								<g>
									<path d="M190.13,209.01c0.49-0.33,0.9-0.06,0.9,0.6s-0.4,1.46-0.9,1.79c-0.49,0.33-0.9,0.06-0.9-0.6
										S189.63,209.34,190.13,209.01z"/>
								</g>
								<g>
									<path d="M197.1,199.72c0.49-0.33,0.9-0.06,0.9,0.6s-0.4,1.46-0.9,1.79c-0.49,0.33-0.9,0.06-0.9-0.6
										S196.61,200.05,197.1,199.72z"/>
								</g>
								<g>
									<path d="M204.08,197.4c0.49-0.33,0.9-0.06,0.9,0.6s-0.4,1.46-0.9,1.79c-0.49,0.33-0.9,0.06-0.9-0.6
										S203.58,197.73,204.08,197.4z"/>
								</g>
								<g>
									<path d="M211.05,190.43c0.49-0.33,0.9-0.06,0.9,0.6s-0.4,1.46-0.9,1.79c-0.49,0.33-0.9,0.06-0.9-0.6
										S210.56,190.76,211.05,190.43z"/>
								</g>
								<g>
									<path d="M218.03,190.43c0.49-0.33,0.9-0.06,0.9,0.6s-0.4,1.46-0.9,1.79c-0.49,0.33-0.9,0.06-0.9-0.6
										S217.53,190.76,218.03,190.43z"/>
								</g>
								<g>
									<path d="M225,171.84c0.49-0.33,0.9-0.06,0.9,0.6s-0.4,1.46-0.9,1.79c-0.49,0.33-0.9,0.06-0.9-0.6S224.51,172.17,225,171.84
										z"/>
								</g>
								<g>
									<path d="M231.98,181.07c0.49-0.33,0.9-0.06,0.9,0.6s-0.4,1.46-0.9,1.79c-0.49,0.33-0.9,0.06-0.9-0.6
										S231.48,181.4,231.98,181.07z"/>
								</g>
								<g>
									<path d="M238.95,171.84c0.49-0.33,0.9-0.06,0.9,0.6s-0.4,1.46-0.9,1.79c-0.49,0.33-0.9,0.06-0.9-0.6
										S238.45,172.17,238.95,171.84z"/>
								</g>
								<g>
									<path d="M245.92,167.19c0.49-0.33,0.9-0.06,0.9,0.6s-0.4,1.46-0.9,1.79c-0.49,0.33-0.9,0.06-0.9-0.6
										S245.43,167.52,245.92,167.19z"/>
								</g>
								<g>
									<path d="M252.9,167.19c0.49-0.33,0.9-0.06,0.9,0.6s-0.4,1.46-0.9,1.79c-0.49,0.33-0.9,0.06-0.9-0.6
										C252,168.32,252.4,167.52,252.9,167.19z"/>
								</g>
								<g>
									<path d="M259.87,162.54c0.49-0.33,0.9-0.06,0.9,0.6s-0.4,1.46-0.9,1.79c-0.49,0.33-0.9,0.06-0.9-0.6
										S259.38,162.87,259.87,162.54z"/>
								</g>
								<g>
									<path d="M266.85,162.54c0.49-0.33,0.9-0.06,0.9,0.6s-0.4,1.46-0.9,1.79c-0.49,0.33-0.9,0.06-0.9-0.6
										S266.35,162.87,266.85,162.54z"/>
								</g>
							</g>
							<g>
								<path d="M148.28,247.63c-0.04,0-0.07-0.01-0.11-0.03c-0.1-0.07-0.14-0.22-0.08-0.34l7.02-13.97
									c0.03-0.06,0.08-0.1,0.14-0.12l6.82-1.68l6.93-16.74c0.03-0.06,0.07-0.11,0.13-0.13c0.06-0.02,0.12-0.01,0.17,0.02l6.9,4.6
									l6.83-2.28l6.93-6.93l6.96-9.27c0.03-0.04,0.06-0.06,0.1-0.08l6.93-2.31l6.94-6.93c0.04-0.04,0.09-0.06,0.14-0.06h6.83
									l6.92-18.44c0.03-0.08,0.09-0.13,0.16-0.15c0.07-0.01,0.15,0.02,0.2,0.08l6.81,9.08l6.81-9.08
									c0.02-0.02,0.03-0.04,0.06-0.05l7-4.66c0.03-0.02,0.07-0.03,0.11-0.03h6.92l6.9-4.6c0.03-0.02,0.07-0.03,0.11-0.03h6.98
									c0.12,0,0.21,0.11,0.21,0.25s-0.1,0.25-0.21,0.25h-6.92l-6.9,4.6c-0.03,0.02-0.07,0.03-0.11,0.03h-6.92l-6.92,4.61
									l-6.95,9.26c-0.08,0.11-0.24,0.11-0.33,0l-6.75-9l-6.84,18.23c-0.03,0.09-0.11,0.15-0.2,0.15h-6.89l-6.91,6.91
									c-0.02,0.02-0.05,0.04-0.08,0.05l-6.91,2.3l-6.94,9.24l-6.99,6.99c-0.02,0.02-0.05,0.04-0.08,0.05l-6.97,2.33
									c-0.06,0.02-0.12,0.01-0.17-0.02l-6.78-4.52l-6.87,16.61c-0.03,0.07-0.08,0.12-0.15,0.14l-6.83,1.68l-6.98,13.88
									C148.42,247.59,148.35,247.63,148.28,247.63z"/>
							</g>
						</g>
					</g>
					<g>
						<path style="fill:#E0E0E0;" d="M151.93,211.71l6.75-4.52c0.34-0.23,0.62-0.07,0.62,0.36c0,0.43-0.28,0.96-0.62,1.19
							l-6.75,4.52c-0.34,0.23-0.62,0.07-0.62-0.36C151.31,212.47,151.59,211.93,151.93,211.71z"/>
						<g>
							<path style="fill:#27DEBF;" d="M148.28,213.66c0.49-0.33,0.9-0.06,0.9,0.6s-0.4,1.46-0.9,1.79s-0.9,0.06-0.9-0.6
								S147.78,213.99,148.28,213.66z"/>
							<path style="opacity:0.3;" d="M148.28,213.66c0.49-0.33,0.9-0.06,0.9,0.6s-0.4,1.46-0.9,1.79s-0.9,0.06-0.9-0.6
								S147.78,213.99,148.28,213.66z"/>
						</g>
					</g>
					<g>
						<path style="fill:#E0E0E0;" d="M151.93,216.34l6.75-4.52c0.34-0.23,0.62-0.07,0.62,0.36c0,0.43-0.28,0.96-0.62,1.19
							l-6.75,4.52c-0.34,0.23-0.62,0.07-0.62-0.36C151.31,217.1,151.59,216.57,151.93,216.34z"/>
						<g>
							<path style="fill:#27DEBF;" d="M148.28,218.31c0.49-0.33,0.9-0.06,0.9,0.6s-0.4,1.46-0.9,1.79c-0.49,0.33-0.9,0.06-0.9-0.6
								S147.78,218.64,148.28,218.31z"/>
						</g>
					</g>
				</g>
				<g>
					<g>
						<g>
							<path style="fill:#27DEBF;" d="M148.28,280.22c-0.05,0-0.11-0.02-0.15-0.07c-0.09-0.1-0.09-0.25-0.01-0.35l3.54-4.2
								l3.47-0.51l3.51-5.23l3.51,0.56l3.41-3.56l3.48-2.41l3.55-5.68l3.53,1.28l3.39-3.49c0.09-0.09,0.22-0.08,0.3,0.02
								c0.08,0.1,0.07,0.26-0.02,0.35l-3.57,3.68l-3.46-1.25l-3.46,5.5l-3.49,2.41l-3.53,3.68l-3.46-0.55l-3.47,5.17l-3.5,0.51
								l-3.43,4.07C148.39,280.2,148.34,280.22,148.28,280.22z"/>
						</g>
						<g>
							<path style="fill:#455A64;" d="M149.66,266.63c0.02-0.03,0.05-0.06,0.09-0.09c0.04-0.03,0.07-0.06,0.09-0.08
								c0.19-0.13,0.37-0.19,0.53-0.18c0.16,0,0.3,0.06,0.42,0.18c0.12,0.12,0.21,0.29,0.27,0.51c0.07,0.22,0.1,0.49,0.1,0.8
								c0,0.31-0.03,0.62-0.1,0.93c-0.07,0.31-0.16,0.6-0.27,0.88c-0.12,0.27-0.26,0.52-0.42,0.74c-0.16,0.22-0.34,0.39-0.53,0.52
								c-0.19,0.13-0.37,0.19-0.53,0.18c-0.16,0-0.3-0.07-0.42-0.18c-0.12-0.12-0.21-0.29-0.28-0.51c-0.07-0.22-0.1-0.49-0.1-0.8
								c0-0.17,0.01-0.35,0.03-0.51c0.02-0.17,0.05-0.33,0.09-0.48c0.04-0.16,0.08-0.31,0.12-0.46c0.04-0.15,0.09-0.3,0.13-0.43
								l0.93-3.05c0.02-0.04,0.04-0.09,0.06-0.15c0.02-0.06,0.05-0.1,0.1-0.14l0.29-0.19c0.03-0.02,0.05-0.02,0.07,0.01
								c0.02,0.03,0.03,0.07,0.03,0.12c0,0.03,0,0.06-0.01,0.08c0,0.02-0.01,0.04-0.02,0.06L149.66,266.63z M149,269.21
								c0,0.18,0.02,0.34,0.06,0.48c0.04,0.14,0.09,0.25,0.17,0.33c0.07,0.08,0.16,0.12,0.26,0.13c0.1,0.01,0.22-0.03,0.35-0.12
								c0.13-0.09,0.24-0.2,0.35-0.35c0.1-0.15,0.19-0.31,0.26-0.48c0.07-0.17,0.13-0.36,0.17-0.55c0.04-0.19,0.06-0.37,0.06-0.56
								c0-0.18-0.02-0.34-0.06-0.48c-0.04-0.14-0.09-0.25-0.17-0.33c-0.07-0.08-0.16-0.12-0.26-0.13c-0.1-0.01-0.22,0.03-0.35,0.12
								s-0.25,0.2-0.35,0.35c-0.1,0.14-0.19,0.3-0.26,0.48c-0.07,0.17-0.13,0.36-0.17,0.55C149.02,268.84,149,269.03,149,269.21z"/>
							<path style="fill:#455A64;" d="M152.03,267.76c0.02,0.09,0.04,0.17,0.07,0.24c0.03,0.08,0.08,0.13,0.14,0.17
								c0.06,0.03,0.14,0.04,0.24,0.03c0.1-0.02,0.23-0.08,0.39-0.19c0.11-0.07,0.21-0.16,0.3-0.27c0.09-0.11,0.18-0.23,0.25-0.38
								c0.07-0.14,0.13-0.3,0.17-0.47c0.04-0.17,0.06-0.36,0.06-0.56c0-0.19-0.02-0.34-0.06-0.45c-0.04-0.11-0.1-0.18-0.17-0.22
								c-0.07-0.03-0.15-0.04-0.25-0.01c-0.09,0.03-0.2,0.08-0.31,0.15l-0.42,0.28c-0.04,0.03-0.07,0.02-0.1-0.01
								c-0.03-0.03-0.04-0.08-0.04-0.15v-0.33c0-0.06,0.01-0.11,0.03-0.17c0.02-0.06,0.04-0.11,0.05-0.16l0.92-2.37l-1.47,0.98
								c-0.04,0.03-0.07,0.02-0.1-0.01c-0.03-0.03-0.04-0.08-0.04-0.15v-0.33c0-0.07,0.01-0.13,0.04-0.2
								c0.03-0.07,0.06-0.11,0.1-0.14l2.01-1.34c0.04-0.03,0.07-0.02,0.1,0.01c0.03,0.03,0.04,0.08,0.04,0.15v0.33
								c0,0.06-0.01,0.11-0.03,0.18c-0.02,0.06-0.04,0.13-0.07,0.19l-0.9,2.33c0.17-0.11,0.33-0.16,0.47-0.17
								c0.14-0.01,0.26,0.04,0.36,0.13c0.1,0.09,0.18,0.24,0.23,0.42c0.06,0.19,0.08,0.43,0.08,0.71c0,0.31-0.03,0.61-0.1,0.9
								c-0.07,0.29-0.16,0.56-0.27,0.8c-0.11,0.24-0.25,0.46-0.4,0.65c-0.16,0.19-0.32,0.35-0.49,0.46
								c-0.23,0.15-0.42,0.24-0.59,0.25c-0.17,0.02-0.3-0.02-0.41-0.1c-0.11-0.08-0.19-0.2-0.24-0.36
								c-0.05-0.15-0.08-0.33-0.08-0.53c0-0.06,0.01-0.11,0.03-0.16c0.02-0.05,0.05-0.09,0.08-0.11l0.23-0.16
								c0.04-0.03,0.07-0.03,0.09,0C152.01,267.68,152.02,267.71,152.03,267.76z"/>
							<path style="fill:#455A64;" d="M155.07,265.73c0.02,0.09,0.04,0.17,0.07,0.24c0.03,0.08,0.08,0.13,0.14,0.17
								c0.06,0.03,0.14,0.04,0.24,0.02c0.1-0.02,0.23-0.08,0.39-0.19c0.11-0.07,0.21-0.16,0.3-0.27c0.09-0.11,0.18-0.24,0.25-0.38
								c0.07-0.14,0.13-0.3,0.17-0.47c0.04-0.17,0.06-0.36,0.06-0.56c0-0.19-0.02-0.34-0.06-0.45c-0.04-0.11-0.1-0.18-0.17-0.21
								c-0.07-0.03-0.15-0.04-0.25-0.01c-0.1,0.03-0.2,0.08-0.31,0.15l-0.42,0.28c-0.04,0.02-0.07,0.02-0.1-0.01
								c-0.03-0.03-0.04-0.08-0.04-0.14v-0.33c0-0.05,0.01-0.11,0.03-0.17c0.02-0.06,0.04-0.11,0.05-0.16l0.92-2.37l-1.47,0.98
								c-0.04,0.03-0.07,0.02-0.1-0.01c-0.03-0.03-0.04-0.08-0.04-0.15v-0.33c0-0.07,0.01-0.13,0.04-0.2
								c0.03-0.07,0.06-0.11,0.1-0.14l2.01-1.34c0.04-0.03,0.07-0.02,0.1,0.01c0.03,0.03,0.04,0.08,0.04,0.15v0.33
								c0,0.06-0.01,0.11-0.03,0.18c-0.02,0.06-0.04,0.13-0.07,0.2l-0.9,2.33c0.17-0.11,0.33-0.16,0.47-0.17
								c0.14-0.01,0.26,0.04,0.36,0.13c0.1,0.09,0.18,0.23,0.23,0.42c0.06,0.19,0.08,0.43,0.08,0.71c0,0.31-0.03,0.61-0.1,0.9
								c-0.07,0.29-0.16,0.56-0.27,0.8s-0.25,0.46-0.4,0.65c-0.15,0.19-0.32,0.35-0.49,0.46c-0.23,0.15-0.43,0.24-0.59,0.25
								c-0.17,0.02-0.3-0.02-0.41-0.1c-0.11-0.08-0.19-0.2-0.24-0.36c-0.05-0.16-0.08-0.33-0.08-0.53c0-0.06,0.01-0.11,0.03-0.16
								c0.02-0.05,0.05-0.09,0.08-0.11l0.23-0.16c0.04-0.03,0.07-0.02,0.09,0C155.05,265.66,155.06,265.69,155.07,265.73z"/>
						</g>
						<g>
							<path style="fill:#E0E0E0;" d="M148.91,283.42l30.14-20.15c0.34-0.23,0.62-0.07,0.62,0.36s-0.28,0.96-0.62,1.19l-30.14,20.15
								c-0.34,0.23-0.62,0.07-0.62-0.36C148.29,284.18,148.57,283.65,148.91,283.42z"/>
						</g>
						<g>
							<path style="fill:#E0E0E0;" d="M148.91,260.18l6.75-4.52c0.34-0.23,0.62-0.07,0.62,0.36c0,0.43-0.28,0.96-0.62,1.19
								l-6.75,4.52c-0.34,0.23-0.62,0.07-0.62-0.36C148.29,260.94,148.57,260.4,148.91,260.18z"/>
						</g>
					</g>
					<g>
						<g>
							<path style="fill:#27DEBF;" d="M148.28,308.08c-0.05,0-0.11-0.02-0.15-0.07c-0.09-0.1-0.09-0.25-0.01-0.35l3.54-4.2l3.5-0.51
								l3.52-3.55l3.39-1.07l3.54-8.13l3.55,2.01l3.42-3.48l0.06-0.01l3.4-0.74l3.43-6.85c0.06-0.12,0.19-0.16,0.29-0.09
								c0.1,0.07,0.14,0.22,0.08,0.34l-3.53,7.04l-3.53,0.77l-3.55,3.61l-3.43-1.94l-3.43,7.89l-3.53,1.11l-3.5,3.56l-3.48,0.51
								l-3.43,4.07C148.39,308.06,148.34,308.08,148.28,308.08z"/>
						</g>
						<g style="opacity:0.3;">
							<path d="M148.28,308.08c-0.05,0-0.11-0.02-0.15-0.07c-0.09-0.1-0.09-0.25-0.01-0.35l3.54-4.2l3.5-0.51l3.52-3.55l3.39-1.07
								l3.54-8.13l3.55,2.01l3.42-3.48l0.06-0.01l3.4-0.74l3.43-6.85c0.06-0.12,0.19-0.16,0.29-0.09c0.1,0.07,0.14,0.22,0.08,0.34
								l-3.53,7.04l-3.53,0.77l-3.55,3.61l-3.43-1.94l-3.43,7.89l-3.53,1.11l-3.5,3.56l-3.48,0.51l-3.43,4.07
								C148.39,308.06,148.34,308.08,148.28,308.08z"/>
						</g>
						<g>
							<path style="fill:#455A64;" d="M150.06,298.21c0,0.07-0.01,0.13-0.04,0.2c-0.03,0.07-0.06,0.11-0.1,0.14l-0.21,0.14
								c-0.04,0.03-0.07,0.02-0.1-0.01c-0.03-0.03-0.04-0.08-0.04-0.15v-5l-0.83,1.67c-0.03,0.07-0.06,0.11-0.1,0.12
								c-0.04,0.01-0.07,0-0.09-0.03l-0.12-0.2c-0.02-0.04-0.03-0.09-0.03-0.16c0-0.07,0.02-0.14,0.05-0.2l1.09-2.22
								c0.03-0.05,0.05-0.09,0.08-0.12c0.03-0.02,0.05-0.04,0.08-0.06l0.21-0.14c0.04-0.03,0.07-0.02,0.1,0.01
								c0.03,0.03,0.04,0.08,0.04,0.15V298.21z"/>
							<path style="fill:#455A64;" d="M152.29,293.64c0.1-0.23,0.18-0.45,0.23-0.65c0.05-0.2,0.08-0.44,0.08-0.71
								c0-0.32-0.05-0.55-0.16-0.7c-0.1-0.14-0.27-0.14-0.5,0.01c-0.12,0.08-0.22,0.18-0.3,0.29c-0.08,0.12-0.15,0.25-0.21,0.39
								c-0.06,0.14-0.1,0.29-0.13,0.45c-0.03,0.16-0.06,0.32-0.08,0.47c-0.01,0.07-0.03,0.14-0.05,0.19
								c-0.03,0.05-0.05,0.09-0.08,0.11l-0.24,0.16c-0.03,0.02-0.06,0.02-0.08-0.01c-0.02-0.03-0.03-0.06-0.03-0.12
								c0-0.23,0.03-0.47,0.09-0.74c0.05-0.27,0.13-0.53,0.23-0.78c0.1-0.26,0.23-0.49,0.37-0.71c0.15-0.22,0.32-0.39,0.51-0.52
								c0.19-0.12,0.35-0.18,0.49-0.18c0.14,0.01,0.26,0.07,0.36,0.18c0.1,0.11,0.17,0.27,0.22,0.47c0.05,0.2,0.07,0.44,0.07,0.7
								c0,0.19-0.01,0.37-0.03,0.54c-0.02,0.17-0.04,0.34-0.08,0.5c-0.04,0.17-0.09,0.34-0.15,0.51c-0.06,0.17-0.14,0.36-0.22,0.56
								l-1.14,2.65l1.56-1.04c0.04-0.03,0.07-0.02,0.1,0.01c0.03,0.03,0.04,0.08,0.04,0.15v0.33c0,0.07-0.01,0.13-0.04,0.2
								c-0.03,0.07-0.06,0.11-0.1,0.14l-2.2,1.46c-0.04,0.03-0.07,0.02-0.1-0.01c-0.03-0.03-0.04-0.08-0.04-0.15v-0.33
								c0-0.07,0.01-0.13,0.03-0.19c0.02-0.06,0.05-0.14,0.09-0.23L152.29,293.64z"/>
							<path style="fill:#455A64;" d="M156.33,290.35c0,0.27,0.01,0.52,0.01,0.76s0,0.49-0.01,0.77c0,0.35-0.03,0.7-0.08,1.04
								c-0.05,0.34-0.13,0.66-0.24,0.95c-0.11,0.3-0.24,0.56-0.4,0.79c-0.16,0.24-0.35,0.43-0.58,0.58
								c-0.22,0.15-0.42,0.21-0.58,0.2c-0.16-0.02-0.3-0.1-0.4-0.26c-0.11-0.15-0.19-0.36-0.24-0.63c-0.05-0.27-0.08-0.58-0.08-0.93
								c0-0.27,0-0.52,0-0.76s0-0.5,0-0.77c0-0.35,0.03-0.7,0.08-1.04c0.05-0.34,0.13-0.66,0.24-0.95c0.1-0.29,0.24-0.56,0.4-0.8
								c0.16-0.24,0.35-0.43,0.58-0.58c0.22-0.15,0.42-0.21,0.58-0.19c0.16,0.02,0.3,0.11,0.4,0.26c0.11,0.15,0.18,0.36,0.24,0.63
								C156.3,289.69,156.32,290,156.33,290.35z M154.2,293.3c0.01,0.57,0.08,0.94,0.22,1.12c0.14,0.18,0.34,0.18,0.6,0
								c0.27-0.18,0.47-0.45,0.6-0.81c0.14-0.36,0.21-0.83,0.22-1.41c0-0.27,0.01-0.53,0.01-0.77c0-0.24,0-0.49-0.01-0.76
								c-0.01-0.57-0.08-0.95-0.22-1.13c-0.14-0.18-0.34-0.19-0.6-0.01c-0.26,0.18-0.47,0.45-0.6,0.82
								c-0.14,0.37-0.21,0.84-0.22,1.42c0,0.27,0,0.53,0,0.77C154.2,292.77,154.2,293.02,154.2,293.3z"/>
						</g>
						<g>
							<path style="fill:#E0E0E0;" d="M148.91,311.28l30.14-20.15c0.34-0.23,0.62-0.07,0.62,0.36c0,0.43-0.28,0.96-0.62,1.19
								l-30.14,20.15c-0.34,0.23-0.62,0.07-0.62-0.36C148.29,312.04,148.57,311.51,148.91,311.28z"/>
						</g>
						<g>
							<path style="fill:#E0E0E0;" d="M148.91,288.03l6.75-4.52c0.34-0.23,0.62-0.07,0.62,0.36c0,0.43-0.28,0.96-0.62,1.19
								l-6.75,4.52c-0.34,0.23-0.62,0.07-0.62-0.36C148.29,288.79,148.57,288.26,148.91,288.03z"/>
						</g>
					</g>
					<g>
						<g>
							<path style="fill:#27DEBF;" d="M190.13,252.29c-0.06,0-0.13-0.03-0.17-0.09c-0.07-0.11-0.06-0.26,0.03-0.35l3.49-3.21
								l3.51-4.63l3.56-0.6l3.4-0.89l3.52-4.8l3.47,0.71l3.48-6.35l3.53,0.06l3.42-3.52c0.09-0.09,0.22-0.08,0.3,0.02
								c0.08,0.1,0.07,0.26-0.02,0.35l-3.54,3.65l-3.46-0.06l-3.5,6.4l-3.51-0.71l-3.45,4.71l-3.56,0.93l-3.42,0.57l-3.43,4.52
								l-3.52,3.24C190.22,252.27,190.17,252.29,190.13,252.29z"/>
						</g>
						<g>
							<path style="fill:#455A64;" d="M191.51,238.7c0.02-0.03,0.05-0.06,0.09-0.09c0.04-0.03,0.07-0.06,0.09-0.08
								c0.19-0.13,0.37-0.19,0.53-0.18c0.16,0,0.3,0.06,0.42,0.18c0.12,0.12,0.21,0.29,0.27,0.51c0.07,0.22,0.1,0.49,0.1,0.8
								c0,0.31-0.03,0.62-0.1,0.93c-0.07,0.31-0.16,0.6-0.27,0.88c-0.12,0.27-0.26,0.52-0.42,0.74c-0.16,0.22-0.34,0.39-0.53,0.52
								c-0.19,0.13-0.37,0.19-0.53,0.18c-0.16,0-0.3-0.07-0.42-0.18c-0.12-0.12-0.21-0.29-0.28-0.51c-0.07-0.22-0.1-0.49-0.1-0.8
								c0-0.17,0.01-0.35,0.03-0.51c0.02-0.17,0.05-0.33,0.09-0.48c0.04-0.16,0.08-0.31,0.12-0.46c0.04-0.15,0.09-0.3,0.13-0.43
								l0.93-3.05c0.02-0.04,0.04-0.09,0.06-0.15c0.02-0.06,0.05-0.1,0.1-0.14l0.29-0.19c0.03-0.02,0.05-0.02,0.07,0.01
								c0.02,0.03,0.03,0.07,0.03,0.12c0,0.03,0,0.06-0.01,0.08c-0.01,0.02-0.01,0.04-0.02,0.06L191.51,238.7z M190.85,241.27
								c0,0.18,0.02,0.34,0.06,0.48c0.04,0.14,0.09,0.25,0.17,0.33c0.07,0.08,0.16,0.12,0.26,0.13c0.1,0.01,0.22-0.03,0.35-0.12
								c0.13-0.09,0.24-0.2,0.35-0.35c0.1-0.15,0.19-0.31,0.26-0.48c0.07-0.17,0.13-0.36,0.17-0.55c0.04-0.19,0.06-0.37,0.06-0.56
								c0-0.18-0.02-0.34-0.06-0.48c-0.04-0.14-0.09-0.25-0.17-0.33c-0.07-0.08-0.16-0.12-0.26-0.13c-0.1-0.01-0.22,0.03-0.35,0.12
								c-0.13,0.09-0.25,0.2-0.35,0.35c-0.1,0.14-0.19,0.3-0.26,0.48c-0.07,0.17-0.13,0.36-0.17,0.55
								C190.87,240.91,190.85,241.09,190.85,241.27z"/>
							<path style="fill:#455A64;" d="M195.04,237.24c0.1-0.23,0.18-0.45,0.23-0.65c0.05-0.2,0.08-0.44,0.08-0.71
								c0-0.32-0.05-0.55-0.16-0.7c-0.11-0.14-0.27-0.14-0.5,0.01c-0.12,0.08-0.22,0.18-0.3,0.29c-0.08,0.12-0.15,0.25-0.21,0.39
								c-0.06,0.14-0.1,0.29-0.13,0.45c-0.03,0.16-0.06,0.32-0.08,0.47c-0.01,0.07-0.03,0.14-0.05,0.19
								c-0.03,0.05-0.05,0.09-0.08,0.11l-0.23,0.16c-0.03,0.02-0.06,0.02-0.08-0.01c-0.02-0.03-0.03-0.06-0.03-0.12
								c0-0.23,0.03-0.47,0.09-0.74c0.05-0.27,0.13-0.53,0.23-0.78c0.1-0.26,0.23-0.49,0.38-0.71c0.15-0.22,0.32-0.39,0.51-0.52
								c0.19-0.12,0.35-0.18,0.5-0.18c0.14,0.01,0.26,0.07,0.36,0.18c0.09,0.11,0.17,0.27,0.22,0.47c0.05,0.2,0.07,0.44,0.07,0.7
								c0,0.19-0.01,0.37-0.03,0.54c-0.02,0.17-0.05,0.34-0.08,0.5c-0.04,0.17-0.09,0.34-0.15,0.51c-0.06,0.17-0.14,0.36-0.22,0.56
								l-1.14,2.65l1.56-1.04c0.04-0.03,0.07-0.02,0.1,0.01c0.03,0.03,0.04,0.08,0.04,0.15v0.33c0,0.07-0.01,0.13-0.04,0.2
								c-0.03,0.07-0.06,0.11-0.1,0.14l-2.2,1.46c-0.04,0.03-0.07,0.02-0.1-0.01c-0.03-0.03-0.04-0.08-0.04-0.15v-0.33
								c0-0.07,0.01-0.13,0.03-0.19c0.02-0.06,0.05-0.14,0.09-0.23L195.04,237.24z"/>
							<path style="fill:#455A64;" d="M198.51,231.92c0.04-0.03,0.07-0.02,0.1,0.01c0.03,0.03,0.04,0.08,0.04,0.15v0.33
								c0,0.05-0.01,0.12-0.02,0.18c-0.01,0.07-0.02,0.14-0.04,0.22l-1.13,5.95c-0.01,0.06-0.03,0.12-0.05,0.18
								c-0.02,0.06-0.05,0.1-0.1,0.13l-0.23,0.16c-0.03,0.02-0.06,0.02-0.09-0.01c-0.02-0.03-0.04-0.07-0.04-0.13
								c0-0.01,0-0.03,0-0.04c0-0.02,0.01-0.04,0.01-0.08l1.14-5.96l-1.67,1.12c-0.04,0.03-0.07,0.02-0.1-0.01
								c-0.03-0.03-0.04-0.08-0.04-0.15v-0.33c0-0.07,0.01-0.13,0.04-0.2c0.03-0.07,0.06-0.11,0.1-0.14L198.51,231.92z"/>
						</g>
						<g>
							<path style="fill:#E0E0E0;" d="M190.76,255.49l30.14-20.15c0.34-0.23,0.62-0.07,0.62,0.36c0,0.43-0.28,0.96-0.62,1.19
								l-30.14,20.15c-0.34,0.23-0.62,0.07-0.62-0.36C190.14,256.24,190.42,255.71,190.76,255.49z"/>
						</g>
						<g>
							<path style="fill:#E0E0E0;" d="M190.76,232.24l6.75-4.52c0.34-0.23,0.62-0.07,0.62,0.36c0,0.43-0.28,0.96-0.62,1.19
								l-6.75,4.52c-0.34,0.23-0.62,0.07-0.62-0.36C190.14,233,190.42,232.47,190.76,232.24z"/>
						</g>
					</g>
					<g>
						<g>
							<path style="fill:#27DEBF;" d="M190.13,280.14c-0.04,0-0.08-0.01-0.11-0.04c-0.1-0.07-0.13-0.22-0.07-0.34l3.56-6.75
								l3.58,0.77l3.37-1.06l3.49-4.91l3.47-1.01l3.52-7.25l3.6,1.21l3.39-0.74l3.43-3.53c0.09-0.09,0.22-0.08,0.3,0.02
								c0.08,0.1,0.07,0.26-0.02,0.35l-3.52,3.62l-0.06,0.01l-3.55,0.78l-3.37-1.13l-3.45,7.09l-3.51,1.02l-3.49,4.91l-0.07,0.02
								l-3.53,1.11l-0.05-0.01l-3.34-0.71l-3.41,6.45C190.27,280.1,190.2,280.14,190.13,280.14z"/>
						</g>
						<g style="opacity:0.3;">
							<path d="M190.13,280.14c-0.04,0-0.08-0.01-0.11-0.04c-0.1-0.07-0.13-0.22-0.07-0.34l3.56-6.75l3.58,0.77l3.37-1.06l3.49-4.91
								l3.47-1.01l3.52-7.25l3.6,1.21l3.39-0.74l3.43-3.53c0.09-0.09,0.22-0.08,0.3,0.02c0.08,0.1,0.07,0.26-0.02,0.35l-3.52,3.62
								l-0.06,0.01l-3.55,0.78l-3.37-1.13l-3.45,7.09l-3.51,1.02l-3.49,4.91l-0.07,0.02l-3.53,1.11l-0.05-0.01l-3.34-0.71
								l-3.41,6.45C190.27,280.1,190.2,280.14,190.13,280.14z"/>
						</g>
						<g>
							<path style="fill:#455A64;" d="M191.74,268.46c-0.02,0.02-0.04,0.04-0.07,0.06c-0.03,0.02-0.05,0.04-0.07,0.05
								c-0.16,0.11-0.32,0.17-0.47,0.18c-0.15,0.01-0.29-0.04-0.41-0.14c-0.12-0.1-0.22-0.26-0.29-0.48
								c-0.07-0.22-0.11-0.5-0.11-0.84c0-0.31,0.03-0.61,0.1-0.92c0.07-0.31,0.16-0.59,0.28-0.86c0.12-0.27,0.25-0.51,0.41-0.72
								c0.15-0.21,0.32-0.38,0.49-0.49c0.2-0.13,0.38-0.2,0.53-0.19c0.16,0,0.29,0.06,0.4,0.18c0.11,0.12,0.2,0.29,0.25,0.51
								c0.06,0.22,0.09,0.48,0.09,0.79c0,0.15-0.01,0.31-0.04,0.48c-0.03,0.17-0.06,0.34-0.1,0.52c-0.04,0.17-0.09,0.34-0.13,0.5
								c-0.05,0.17-0.09,0.32-0.13,0.45l-0.93,3.05c-0.02,0.04-0.04,0.09-0.06,0.15c-0.02,0.06-0.05,0.1-0.1,0.14l-0.29,0.19
								c-0.03,0.02-0.06,0.02-0.07-0.01c-0.02-0.03-0.03-0.07-0.03-0.12c0-0.03,0-0.06,0.01-0.08c0-0.02,0.01-0.04,0.02-0.06
								L191.74,268.46z M192.4,265.9c0-0.19-0.02-0.35-0.06-0.49c-0.04-0.14-0.09-0.24-0.16-0.31c-0.07-0.07-0.15-0.11-0.25-0.11
								c-0.1,0-0.21,0.04-0.32,0.12c-0.12,0.08-0.23,0.18-0.32,0.32c-0.1,0.13-0.18,0.28-0.25,0.44c-0.07,0.16-0.12,0.34-0.16,0.53
								c-0.04,0.19-0.06,0.38-0.06,0.57c0,0.19,0.02,0.36,0.06,0.49c0.04,0.14,0.09,0.24,0.16,0.31c0.07,0.07,0.15,0.11,0.25,0.11
								c0.1,0,0.2-0.04,0.32-0.12c0.11-0.08,0.22-0.18,0.32-0.31c0.1-0.13,0.18-0.28,0.25-0.45c0.07-0.16,0.12-0.34,0.16-0.53
								C192.38,266.28,192.4,266.09,192.4,265.9z"/>
							<path style="fill:#455A64;" d="M193.73,267.78c0.02,0.09,0.04,0.17,0.07,0.24c0.03,0.08,0.08,0.13,0.14,0.17
								c0.06,0.03,0.14,0.04,0.24,0.02c0.1-0.02,0.23-0.08,0.39-0.19c0.1-0.07,0.21-0.16,0.3-0.27c0.1-0.11,0.18-0.24,0.25-0.38
								c0.07-0.15,0.13-0.3,0.17-0.47c0.04-0.17,0.06-0.36,0.06-0.56c0-0.19-0.02-0.34-0.06-0.45c-0.04-0.11-0.1-0.18-0.17-0.22
								c-0.07-0.03-0.15-0.04-0.25-0.01c-0.09,0.03-0.2,0.08-0.31,0.15l-0.42,0.28c-0.04,0.03-0.07,0.02-0.1-0.01
								c-0.03-0.03-0.04-0.08-0.04-0.15v-0.33c0-0.06,0.01-0.11,0.03-0.17c0.02-0.06,0.04-0.11,0.05-0.16l0.92-2.37l-1.47,0.98
								c-0.04,0.03-0.07,0.02-0.1-0.01c-0.03-0.03-0.04-0.08-0.04-0.15v-0.33c0-0.07,0.01-0.13,0.04-0.2
								c0.03-0.07,0.06-0.11,0.1-0.14l2.01-1.34c0.04-0.03,0.07-0.02,0.1,0.01c0.03,0.03,0.04,0.08,0.04,0.15v0.33
								c0,0.05-0.01,0.11-0.03,0.18c-0.02,0.06-0.04,0.13-0.07,0.19l-0.9,2.33c0.17-0.11,0.33-0.16,0.47-0.17
								c0.14-0.01,0.26,0.04,0.36,0.13c0.1,0.09,0.18,0.24,0.24,0.42c0.06,0.19,0.08,0.43,0.08,0.71c0,0.31-0.03,0.61-0.1,0.9
								c-0.07,0.29-0.16,0.56-0.27,0.8c-0.11,0.24-0.25,0.46-0.4,0.65c-0.16,0.19-0.32,0.35-0.49,0.46
								c-0.23,0.15-0.43,0.24-0.59,0.25c-0.17,0.02-0.3-0.02-0.41-0.1c-0.11-0.08-0.19-0.2-0.24-0.36
								c-0.05-0.16-0.08-0.33-0.08-0.53c0-0.06,0.01-0.11,0.03-0.16c0.02-0.05,0.05-0.09,0.08-0.11l0.23-0.16
								c0.04-0.03,0.07-0.03,0.09,0C193.7,267.7,193.72,267.73,193.73,267.78z"/>
						</g>
						<g>
							<path style="fill:#E0E0E0;" d="M190.76,283.34l30.14-20.15c0.34-0.23,0.62-0.07,0.62,0.36c0,0.43-0.28,0.96-0.62,1.19
								l-30.14,20.15c-0.34,0.23-0.62,0.07-0.62-0.36C190.14,284.1,190.42,283.57,190.76,283.34z"/>
						</g>
						<g>
							<path style="fill:#E0E0E0;" d="M190.76,260.1l6.75-4.52c0.34-0.23,0.62-0.07,0.62,0.36c0,0.43-0.28,0.96-0.62,1.19
								l-6.75,4.52c-0.34,0.23-0.62,0.07-0.62-0.36C190.14,260.85,190.42,260.32,190.76,260.1z"/>
						</g>
					</g>
				</g>
				<g>
					<g>
						<g id="XMLID_00000005955831727187732210000012111476100942039459_">
							<g id="XMLID_00000077318422021099808520000000739087098530572977_">
								<g id="XMLID_00000085234280643177601740000013264520991831597736_">
									<path id="XMLID_00000056416484620135781310000010227844466687889069_" style="fill:#27DEBF;" d="M235.46,207.06
										c1.49-0.99,2.86-1.04,3.97-0.34l-3.97,12.37V207.06z"/>
									<path id="XMLID_00000062908703309863925870000000283165887760191381_" style="fill:#27DEBF;" d="M231.49,212.02
										c1.12-2.19,2.49-3.96,3.97-4.95v12.03L231.49,212.02z"/>
									<path id="XMLID_00000022530068651805576240000004898257300200426882_" style="fill:#27DEBF;" d="M229.03,219.66
										c0.45-2.74,1.32-5.41,2.46-7.64l3.97,7.07L229.03,219.66z"/>
									<path style="opacity:0.3;" d="M231.49,212.02c-1.14,2.24-2.02,4.91-2.46,7.64l6.44-0.57v-12.03
										C233.98,208.06,232.6,209.83,231.49,212.02z"/>
									<path id="XMLID_00000065790308252178012770000006151477071346177409_" style="fill:#27DEBF;" d="M239.44,206.72
										c1.14,0.72,2.02,2.22,2.46,4.36l-6.44,8L239.44,206.72z"/>
									<path id="XMLID_00000012459969563223526570000006158739101804196235_" style="fill:#27DEBF;" d="M229.03,227.1
										c-0.21-1.03-0.33-2.2-0.33-3.49c0-1.3,0.12-2.62,0.33-3.94l6.44-0.57L229.03,227.1z"/>
									<path id="XMLID_00000024685433088193203370000005863749262685476769_" style="fill:#27DEBF;" d="M241.9,218.52
										c-0.45,2.74-1.32,5.41-2.46,7.64l-3.97-7.07L241.9,218.52z"/>
									<path id="XMLID_00000118381592051245550390000013342425361607030708_" style="fill:#27DEBF;" d="M235.46,231.12
										c-1.49,0.99-2.86,1.04-3.97,0.34l3.97-12.37V231.12z"/>
									<path id="XMLID_00000036965910951719202660000000051068792982259641_" style="fill:#27DEBF;" d="M229.03,227.1l6.44-8
										l-3.97,12.37C230.35,230.74,229.47,229.24,229.03,227.1z"/>
									<path id="XMLID_00000123426728985767143240000010076515760019704992_" style="fill:#27DEBF;" d="M241.9,211.09
										c0.21,1.03,0.33,2.2,0.33,3.49c0,1.3-0.12,2.62-0.33,3.94l-6.44,0.57L241.9,211.09z"/>
									<path id="XMLID_00000013883188159414037270000006116458933531419055_" style="fill:#27DEBF;" d="M239.44,226.16
										c-1.12,2.19-2.49,3.96-3.97,4.95v-12.03L239.44,226.16z"/>
								</g>
							</g>
						</g>
						<g>
							<path style="fill:#455A64;" d="M232.09,237.25l6.75-4.52c0.34-0.23,0.62-0.07,0.62,0.36c0,0.43-0.28,0.96-0.62,1.19
								l-6.75,4.52c-0.34,0.23-0.62,0.07-0.62-0.36C231.47,238.01,231.74,237.48,232.09,237.25z"/>
							<path style="fill:#E0E0E0;" d="M230.6,242.91l9.73-6.52c0.34-0.23,0.62-0.07,0.62,0.36c0,0.43-0.28,0.96-0.62,1.19
								l-9.73,6.52c-0.34,0.23-0.62,0.07-0.62-0.36C229.98,243.66,230.26,243.13,230.6,242.91z"/>
							<path style="fill:#E0E0E0;" d="M230.6,247.56l9.73-6.52c0.34-0.23,0.62-0.07,0.62,0.36c0,0.43-0.28,0.96-0.62,1.19
								l-9.73,6.52c-0.34,0.23-0.62,0.07-0.62-0.36C229.98,248.32,230.26,247.79,230.6,247.56z"/>
							<path style="fill:#E0E0E0;" d="M230.6,252.22l9.73-6.52c0.34-0.23,0.62-0.07,0.62,0.36c0,0.43-0.28,0.96-0.62,1.19
								l-9.73,6.52c-0.34,0.23-0.62,0.07-0.62-0.36C229.98,252.98,230.26,252.45,230.6,252.22z"/>
						</g>
					</g>
					<g>
						<g id="XMLID_00000119114350906578091620000015738038821122926228_">
							<g id="XMLID_00000107582775648350291790000006745011063667471285_">
								<g id="XMLID_00000176005873988276100880000014642312122349742012_">
									<path id="XMLID_00000062884158700829982440000010371455431239141036_" style="fill:#27DEBF;" d="M259.87,190.74
										c1.49-0.99,2.86-1.04,3.97-0.34l-3.97,12.37V190.74z"/>
									<path id="XMLID_00000073679757829780600750000017966027938653334423_" style="fill:#27DEBF;" d="M255.9,195.69
										c1.12-2.19,2.49-3.96,3.97-4.95v12.03L255.9,195.69z"/>
									<path id="XMLID_00000163763618881826802920000012710352708593990825_" style="fill:#27DEBF;" d="M253.44,203.34
										c0.45-2.74,1.32-5.41,2.46-7.64l3.97,7.07L253.44,203.34z"/>
									<path id="XMLID_00000141422176218637888780000018088269772570389122_" style="fill:#27DEBF;" d="M263.85,190.4
										c1.14,0.72,2.02,2.22,2.46,4.36l-6.44,8L263.85,190.4z"/>
									<path id="XMLID_00000177450129520224261350000007506522211864598435_" style="fill:#27DEBF;" d="M253.44,210.77
										c-0.21-1.03-0.33-2.2-0.33-3.49c0-1.3,0.12-2.62,0.33-3.94l6.44-0.57L253.44,210.77z"/>
									<path id="XMLID_00000028326519883168409220000000828748920516830849_" style="fill:#27DEBF;" d="M266.31,202.19
										c-0.45,2.74-1.32,5.41-2.46,7.64l-3.97-7.07L266.31,202.19z"/>
									<path id="XMLID_00000036969041940387749530000007885844692166422149_" style="fill:#27DEBF;" d="M259.87,214.79
										c-1.49,0.99-2.86,1.04-3.97,0.34l3.97-12.37V214.79z"/>
									<path id="XMLID_00000008841427239039551110000001657476688819305359_" style="fill:#27DEBF;" d="M253.44,210.77l6.44-8
										l-3.97,12.37C254.76,214.42,253.88,212.91,253.44,210.77z"/>
									<path style="opacity:0.3;" d="M255.9,195.69c-1.14,2.24-2.02,4.91-2.46,7.64c-0.21,1.31-0.33,2.64-0.33,3.94
										c0,1.3,0.12,2.47,0.33,3.49c0.45,2.14,1.32,3.65,2.46,4.36l3.97-12.37v-12.03C258.39,191.73,257.02,193.51,255.9,195.69z"
										/>
									<path id="XMLID_00000038376658206551559530000005226774406824436119_" style="fill:#27DEBF;" d="M266.31,194.76
										c0.21,1.03,0.33,2.2,0.33,3.49c0,1.3-0.12,2.62-0.33,3.94l-6.44,0.57L266.31,194.76z"/>
									<path id="XMLID_00000136408152784677312960000004254600671222720682_" style="fill:#27DEBF;" d="M263.85,209.84
										c-1.12,2.19-2.49,3.96-3.97,4.95v-12.03L263.85,209.84z"/>
								</g>
							</g>
						</g>
						<g>
							<path style="fill:#455A64;" d="M256.5,220.99l6.75-4.52c0.34-0.23,0.62-0.07,0.62,0.36s-0.28,0.96-0.62,1.19l-6.75,4.52
								c-0.34,0.23-0.62,0.07-0.62-0.36C255.88,221.75,256.16,221.22,256.5,220.99z"/>
							<path style="fill:#E0E0E0;" d="M255.01,226.64l9.73-6.52c0.34-0.23,0.62-0.07,0.62,0.36s-0.28,0.96-0.62,1.19l-9.73,6.52
								c-0.34,0.23-0.62,0.07-0.62-0.36C254.39,227.4,254.67,226.87,255.01,226.64z"/>
							<path style="fill:#E0E0E0;" d="M255.01,231.3l9.73-6.52c0.34-0.23,0.62-0.07,0.62,0.36c0,0.43-0.28,0.96-0.62,1.19
								l-9.73,6.52c-0.34,0.23-0.62,0.07-0.62-0.36C254.39,232.06,254.67,231.53,255.01,231.3z"/>
							<path style="fill:#E0E0E0;" d="M255.01,235.96l9.73-6.52c0.34-0.23,0.62-0.07,0.62,0.36c0,0.43-0.28,0.96-0.62,1.19
								l-9.73,6.52c-0.34,0.23-0.62,0.07-0.62-0.36C254.39,236.72,254.67,236.18,255.01,235.96z"/>
						</g>
					</g>
				</g>
			</g>
		</g>
	</g>
</g>
<g id="Magnifying_Glass">
	<g id="Glass">
		<g id="XMLID_762_">
			<g id="XMLID_768_">
				<path id="XMLID_773_" style="fill:#27DEBF;" d="M259.74,352c0.11-3.81-2.07-8.54-4.88-10.56c-1.39-1-2.66-1.14-3.62-0.58l0,0
					c-5.74,3.33-46.11,33.2-48.69,34.67l-0.03,0.02c-0.48,0.3-0.79,0.96-0.82,1.92c-0.06,1.92,1.05,4.31,2.46,5.32
					c0.71,0.51,1.36,0.58,1.84,0.28l0.04-0.02c4.09-2.6,43.92-22.19,52.07-27.23c0,0,0,0,0,0c0,0,0,0,0,0l0,0
					C259.07,355.22,259.69,353.91,259.74,352z"/>
				<path id="XMLID_770_" style="opacity:0.1;" d="M258.16,345.56c-0.86-1.71-2.01-3.2-3.29-4.12c-1.38-0.99-2.65-1.14-3.61-0.58
					c-0.19,0.12-0.25,0.16-0.12,0.07c-5.24,3.1-35.28,25.21-45.39,32.4c-0.02,0.02-0.05,0.03-0.07,0.05
					c-0.14,0.1-0.28,0.2-0.41,0.29c-0.04,0.03-0.08,0.06-0.12,0.09c-0.08,0.06-0.15,0.11-0.23,0.16c-0.09,0.06-0.18,0.13-0.27,0.19
					c-0.01,0.01-0.01,0.01-0.02,0.01c-1.07,0.75-1.79,1.24-2.07,1.4l-0.03,0.02c-0.09,0.05-0.16,0.13-0.24,0.21
					c-0.34,0.35-0.56,0.92-0.58,1.71c-0.01,0.22,0.01,0.44,0.03,0.67c0.01,0.09,0.02,0.17,0.03,0.26c0.02,0.14,0.04,0.27,0.07,0.41
					c0.02,0.11,0.05,0.22,0.07,0.33c0.03,0.13,0.07,0.26,0.11,0.38c0.03,0.1,0.06,0.19,0.09,0.28c0.01,0.02,0.01,0.03,0.02,0.05
					L258.16,345.56z"/>
				<path id="XMLID_769_" style="fill:#27DEBF;" d="M204.15,382.79c-1.41-1.01-2.51-3.38-2.45-5.3c0.06-1.92,1.24-2.65,2.65-1.63
					c1.41,1.01,2.51,3.38,2.45,5.3C206.75,383.07,205.56,383.8,204.15,382.79z"/>
			</g>
			<path id="XMLID_767_" style="fill:#37474F;" d="M192.09,384.07c-0.04,1.47,0.8,3.29,1.88,4.07c0.54,0.39,1.03,0.44,1.4,0.22l0,0
				l0.01,0l0,0l9.76-6c0,0,0,0,0.01,0l0,0l0,0c0.37-0.23,0.6-0.73,0.62-1.47c0.04-1.47-0.8-3.29-1.88-4.07
				c-0.54-0.39-1.04-0.44-1.41-0.22l0,0l-9.76,6l0,0C192.35,382.82,192.11,383.33,192.09,384.07z"/>
			<path id="XMLID_763_" style="fill:#263238;" d="M192.73,382.6c-0.37,0.23-0.61,0.73-0.63,1.47c-0.02,0.55,0.09,1.16,0.29,1.74
				l12.59-7.75c-0.3-0.51-0.68-0.95-1.08-1.24c-0.54-0.39-1.04-0.44-1.41-0.22L192.73,382.6L192.73,382.6z"/>
		</g>
		<g id="XMLID_440_">
			<path id="XMLID_758_" style="fill:#27DEBF;" d="M204.62,394.07c0-7.22-4.13-14.44-12.4-19.95c-16.54-11.02-43.35-11.02-59.88,0
				c-8.27,5.51-12.4,12.73-12.4,19.95l0,0v13.3c0,7.22,4.13,14.44,12.4,19.95c16.54,11.02,43.35,11.02,59.88,0
				c8.27-5.51,12.4-12.73,12.4-19.95V394.07L204.62,394.07z M134.38,378.22c7.38-4.92,17.29-7.63,27.89-7.63
				c10.6,0,20.51,2.71,27.89,7.63c6.68,4.45,10.35,10.08,10.35,15.86c0,5.78-3.68,11.41-10.35,15.86
				c-7.38,4.92-17.29,7.63-27.89,7.63c-10.6,0-20.51-2.71-27.89-7.63c-6.68-4.45-10.35-10.08-10.35-15.86
				C124.02,388.3,127.7,382.66,134.38,378.22z"/>
			<path id="XMLID_739_" style="opacity:0.3;fill:#FFFFFF;" d="M132.33,414.02c16.54,11.02,43.35,11.02,59.88,0
				c16.54-11.02,16.54-28.88,0-39.9c-16.54-11.02-43.35-11.02-59.88,0C115.79,385.14,115.79,403,132.33,414.02z M124.02,394.07
				c0-5.78,3.68-11.41,10.35-15.86c7.38-4.92,17.29-7.63,27.89-7.63c10.6,0,20.51,2.71,27.89,7.63
				c6.68,4.45,10.35,10.08,10.35,15.86c0,5.78-3.68,11.41-10.35,15.86c-7.39,4.92-17.29,7.63-27.89,7.63
				c-10.6,0-20.51-2.71-27.89-7.63C127.7,405.48,124.02,399.85,124.02,394.07z"/>
			<g id="XMLID_732_">
				<path id="XMLID_738_" style="fill:#27DEBF;" d="M124.02,394.07c0,2.27,0.57,4.5,1.65,6.65c1.68-3.36,4.64-6.5,8.71-9.21
					c7.38-4.92,17.29-7.64,27.9-7.64c10.6,0,20.51,2.71,27.89,7.64c4.07,2.7,7.03,5.85,8.71,9.21c1.08-2.15,1.65-4.39,1.65-6.65
					c0-5.77-3.68-11.41-10.36-15.86c-7.38-4.91-17.29-7.63-27.89-7.63c-10.61,0-20.52,2.71-27.9,7.63
					C127.69,382.66,124.02,388.3,124.02,394.07z"/>
				<path id="XMLID_734_" style="opacity:0.1;" d="M124.02,394.07c0,2.27,0.57,4.5,1.65,6.65c1.68-3.36,4.64-6.5,8.71-9.21
					c7.38-4.92,17.29-7.64,27.9-7.64c10.6,0,20.51,2.71,27.89,7.64c4.07,2.7,7.03,5.85,8.71,9.21c1.08-2.15,1.65-4.39,1.65-6.65
					c0-5.77-3.68-11.41-10.36-15.86c-7.38-4.91-17.29-7.63-27.89-7.63c-10.61,0-20.52,2.71-27.9,7.63
					C127.69,382.66,124.02,388.3,124.02,394.07z"/>
			</g>
			<path id="XMLID_726_" style="opacity:0.4;fill:#FFFFFF;" d="M134.37,384.24c7.38-4.92,17.29-7.63,27.89-7.63
				c10.6,0,20.51,2.71,27.89,7.63c5.51,3.67,8.97,8.15,10.01,12.85c-1.04,4.7-4.5,9.17-10.01,12.85
				c-7.39,4.92-17.29,7.63-27.89,7.63c-10.6,0-20.51-2.71-27.89-7.63c-5.51-3.67-8.97-8.15-10.01-12.85
				C125.4,392.38,128.86,387.91,134.37,384.24z"/>
			<path id="XMLID_715_" style="opacity:0.1;" d="M152.29,421.5v13.29c-7.31-1.17-14.25-3.66-19.96-7.47
				c-8.27-5.51-12.41-12.73-12.41-19.95v-13.3c0-1.46,0.17-2.91,0.51-4.36h0.01c-2.01,8.59,1.96,17.68,11.89,24.31
				C138.04,417.83,144.98,420.32,152.29,421.5z"/>
		</g>
	</g>
</g>
<g id="Character">
	<g id="Character_00000093899214198871984760000006403389614189668504_">
		<g id="XMLID_00000048467382730987508350000016476069691350717574_">
			<g id="XMLID_00000004538904259245806990000010270589514611411607_">
				<path id="XMLID_00000053521823019830369060000011764116760878019468_" style="fill:#263238;" d="M354.11,340.3
					c0.5,0.23,0.61,1.35,0.64,3.56c0.03,1.67,0.28,4.6-1.43,5.14c-1.71,0.54-4.19,0.18-5.24-1.43c-1.32-2-2.2-3.76-4.09-6.21
					c-1.64-2.12-3.42-4.12-4.04-7.05c-0.56-2.65-0.03-3.78,1.55-4.51c2.17-1,5.47,2.53,7.14,3.12
					C350.07,333.42,353.61,340.06,354.11,340.3z"/>
			</g>
			<g id="XMLID_00000142896098427168339780000009321010524390328461_">
				<path id="XMLID_00000027580472060085284030000006162833291402052250_" style="fill:#FFA8A7;" d="M354.15,338.25l-0.05,2.71
					c0,0-2.49,2.1-5.94,0.03c-0.1-0.26-0.54-3.9-0.54-3.9L354.15,338.25z"/>
			</g>
			<g id="XMLID_00000127745443939484629520000003560229617252596400_">
				<path id="XMLID_00000072982017313882185430000004619913178900655284_" style="fill:#263238;" d="M334.78,355.43
					c0,0,0.63,2.38,0.95,4.45c0.26,1.65,0.62,4.4,0.1,5.62c-0.52,1.22-2.48,1.97-5.49,1.86c-1.95-0.07-5.02,1.38-7.12,2.67
					c-2.17,1.33-6.65,1.76-8.92,1.39c-2.67-0.43-5.41-2.3-5.82-3.59c-0.41-1.29,0.19-2.6,6.56-5.54c0.06-0.03,8.84-3.07,11.96-6.88
					L334.78,355.43z"/>
			</g>
			<g id="XMLID_00000145036506463172855760000009771724854661876647_">
				<path id="XMLID_00000043439830831279702300000015481734786321660064_" style="fill:#FFA8A7;" d="M334.83,352.5
					c0,0-0.05,2.01-0.06,3.16c-0.01,1.15-1.22,2.83-4.27,2.63c-2.14-0.14-3.62-0.85-3.5-2.88l0.06-2.93L334.83,352.5z"/>
			</g>
			<g id="XMLID_00000140708641966462374180000000464431000525364869_">
				<path id="XMLID_00000170278271469835146690000003429259135288326288_" style="fill:#37474F;" d="M356.39,302.3
					c-0.9-8.89-2.5-14.2-2.5-14.2s1.08-12.17,1.71-23.71c0.68-12.47,1.31-18.89-0.82-36.9c0,0-33.13-3.43-34.03,10.98
					c-0.9,14.41,0.38,51.19,0.67,57.54c0.29,6.35,1.13,11.98,2.06,22.28c0.92,10.17,3.59,34.19,3.59,34.19
					c3.94,2.59,7.77,0.02,7.77,0.02s3.02-28.78,2.9-36.1c-0.14-8.94-2.09-16.03-2.09-16.03s0.89-11.88,1.68-22.21
					c0.79-10.33,1.5-15.29,1.73-19.78l0.76-0.41c0,0,0.42,17.87,0.71,24.22c0.29,6.35,1.04,12.45,2.4,24.26
					c1.18,10.25,4.86,31.96,4.86,31.96c3.94,2.59,6.37-0.16,6.37-0.16S357.29,311.19,356.39,302.3z"/>
			</g>
			<g id="XMLID_00000013899314210061414650000011869632129144251540_">
				<path id="XMLID_00000134234314552097950660000009209430978053031868_" style="fill:#263238;" d="M339.05,258.37
					c0,0,8.56-4.59,12.88-8.83c0,0-4.06,6.3-9.28,9c0,0-2.27,22.13-2.25,21.69l-0.63-21.87L339.05,258.37z"/>
			</g>
		</g>
		<g id="XMLID_00000069382997095755208970000005119372964209365921_">
			<polygon id="XMLID_00000160884725172528317090000013548535084409944711_" style="fill:#FFA8A7;" points="333.12,176.12 
				334.41,189.32 345.21,188.69 344.01,173.29 			"/>
			<g id="XMLID_00000176042287024926424830000002350617217116743606_">
				<path style="fill:#37474F;" d="M349.28,181.18c4.02-0.21,6.06,0.48,7.87,4.49c1.81,4,2.51,15.96,3.14,22.13
					c0.63,6.17,0.79,10.52-1.41,11.15c-2.2,0.63-10.76,0.91-10.76,0.91L349.28,181.18z"/>
				<path id="XMLID_00000168817230065880308340000003519412251710783921_" style="fill:#455A64;" d="M356.07,188.02
					c-0.58-3.69-4.79-7.58-8.73-6.84c-0.92,0.17-1.81,0.35-2.67,0.52c-0.47,2.22-5.75,3.61-10.78,2.24
					c-1.52,0.46-6.52,1.54-7.78,2.02c-3.62,1.39-5.12,5.5-5.68,19.13c0,0,0.29,30.86,0.15,37c8.94,4.35,18.32,4.47,23.53,3.3
					c10.85-2.44,12.25-7.57,12.25-7.57l-1.61-14.12C354.74,223.7,357.39,196.37,356.07,188.02z"/>
				<path style="fill:#37474F;" d="M333.54,180.48l0.08,0.83c0,0,3.12,0.9,6.63,0c3.51-0.9,4.22-2.04,4.22-2.04l-0.07-0.94
					c0,0,0.87-0.37,1.33,1.18c0.46,1.55,0.51,1.89,0.51,1.89s0.4,2.84-3.72,4.28c-5.94,2.08-10.27-1.3-10.27-1.3l-1.62,0.39
					c0,0,1.4-3.72,1.82-4.48c0.42-0.75,1.01-0.65,1.01-0.65L333.54,180.48z"/>
				<g id="XMLID_00000117658364133173147290000011933071808203788200_">
					<polygon id="XMLID_00000094613734216381018570000016940492853494192563_" style="fill:#455A64;" points="300.57,166.32 
						279.14,179.22 289.79,212.8 309.78,199.88 					"/>
					<polygon id="XMLID_00000072965259131239912250000016731108179757861270_" style="fill:#F5F5F5;" points="299.58,169.61 
						281.61,180.43 291.03,209.3 307.8,198.46 					"/>
					<path id="XMLID_00000178924695466049153340000000699561199661547684_" style="opacity:0.15;" d="M295.79,172.72
						c0,0-0.16-0.46-0.35-1.03c-0.19-0.57-1.69-0.23-3.34,0.76l-3.16,1.89c-1.65,0.98-2.84,2.24-2.64,2.81l0.35,1.03L295.79,172.72z
						"/>
					<g id="XMLID_00000067931190895513699520000009310846464516387751_">
						<path id="XMLID_00000180338752806110758470000000187578769679017372_" style="fill:#27DEBF;" d="M295.44,168.61
							c-0.12-0.35-0.77-0.3-1.45,0.13l-1.24,0.77c0,0-0.76-2.22-3.61-0.68c-2.85,1.54-2.2,4.11-2.2,4.11s-0.59,0.37-1.32,0.84
							c-0.73,0.46-1.24,1.13-1.16,1.49l0.16,0.65l11.03-6.64C295.66,169.27,295.56,168.97,295.44,168.61z"/>
						<path id="XMLID_00000014594983956224933080000018358296943248527547_" style="fill:#27DEBF;" d="M294.25,170.11
							c-1.03,0.58-1.43,0.86-1.13,1.74c0.34,1,0.65,1.72,0.65,1.72l-4.88,2.95c0,0-0.41-1.27-0.58-1.76
							c-0.18-0.49-0.53-0.72-1.31-0.26l-0.29-0.35l7.7-4.53L294.25,170.11z"/>
						<path id="XMLID_00000074400957515128203810000016239405229483493253_" style="opacity:0.3;" d="M294.25,170.11
							c-1.03,0.58-1.43,0.86-1.13,1.74c0.34,1,0.65,1.72,0.65,1.72l-4.88,2.95c0,0-0.41-1.27-0.58-1.76
							c-0.18-0.49-0.53-0.72-1.31-0.26l-0.29-0.35l7.7-4.53L294.25,170.11z"/>
						<path id="XMLID_00000023275301435711347560000009168986208652493743_" style="fill:#27DEBF;" d="M296,172.78
							c0,0-0.16-0.46-0.35-1.03c-0.19-0.57-1.69-0.23-3.34,0.76l-3.16,1.89c-1.65,0.98-2.84,2.24-2.64,2.81l0.35,1.03L296,172.78z"
							/>
					</g>
				</g>
				<g id="XMLID_00000127727096381084715820000003514533825442203563_">
					<g id="XMLID_00000003784065927706271880000017708930657643746982_">
						<path id="XMLID_00000154404062126791828240000005782763186433164462_" style="fill:#FFA8A7;" d="M326.1,185.97
							c-4.94,0.5-7.05,1.54-10.76,9.26c-4.03,8.38-11.77,23.56-12.76,25.47c-1.37,2.67-1.62,6.72-0.45,9.17
							c1.1,2.29,4.6,3.33,8.56-1.83c4.71-6.14,13.48-21.14,13.48-21.14S331.62,195.56,326.1,185.97z"/>
					</g>
				</g>
				<path id="XMLID_00000108285497294481355590000007003441728548743576_" style="fill:#FFA8A7;" d="M304.18,231.63
					c-3.79-0.53-12.64-14.39-15.16-18.92c-2.76-4.96-5.33-7.34-7.67-9.34c-4.01-3.42-3.43-8.68-1.68-13.49
					c0.61-1.67,2.66-0.58,2.66-0.58l0.72,2.29l1.25,3.96c0.85,0.91,1.33,1.21,1.39,0.94c0.11-0.51-0.62-2.64-0.61-4.86
					c0.02-2.67,1.64-0.91,2.13,0.02c0.48,0.94,1.05,2.46,1.71,4.41c0.81,2.39,0.47,4.81,1.46,6.44
					c0.98,1.63,14.19,16.23,14.19,16.23L304.18,231.63z"/>
				<path style="fill:#37474F;" d="M327.05,185.67c-3-0.09-6.6,0.47-9.38,4.65c-2.79,4.18-13.95,26.92-13.95,26.92l-6.26-6.48
					c0,0-3.94,2.62-4.82,7.86c0,0,3.02,5.53,5.67,8.88c2.65,3.35,5.6,5.68,8.02,4.65c2.42-1.03,4.89-3.24,10.11-11.62
					c5.21-8.37,10.9-18.26,10.9-18.26S330.93,192.6,327.05,185.67z"/>
			</g>
			<g id="XMLID_00000098216827265575944320000002471224387929004981_">
				<path id="XMLID_00000161591094346978598540000016432308924576447403_" style="fill:#F28F8F;" d="M325.51,159.96
					c0,0-2.7,4.72-2.39,5.19c0.31,0.46,2.29,0.88,2.29,0.88L325.51,159.96z"/>
			</g>
			<g id="XMLID_00000163044938708042657710000013933573724967228839_">
				<path id="XMLID_00000058565640281925579120000015720297634783982774_" style="fill:#263238;" d="M326.77,163
					c-1.77,0-3.21-1.66-3.21-3.71c0-2.04,1.44-3.71,3.21-3.71s3.21,1.66,3.21,3.71C329.98,161.33,328.54,163,326.77,163z
					 M326.77,156.4c-1.38,0-2.5,1.29-2.5,2.88c0,1.59,1.12,2.88,2.5,2.88c1.38,0,2.5-1.29,2.5-2.88
					C329.27,157.7,328.15,156.4,326.77,156.4z"/>
			</g>
			<g id="XMLID_00000133497186027351368110000004054257842276954037_">
				<path id="XMLID_00000029031206359171493340000011356143386820510850_" style="fill:#FFA8A7;" d="M333,146.9
					c-5.46,1.33-7.03,4.1-7.55,14.1c-0.54,10.45,0.39,13.74,1.58,15.15c0.8,0.95,5.27,1.12,7.52,0.41c2.82-0.9,9.19-3.5,12.17-8.76
					c3.51-6.19,4.43-14.57,0.67-18.01C342.11,144.94,335.22,146.36,333,146.9z"/>
			</g>
			<path style="fill:#F28F8F;" d="M333.19,176.85l-0.25-1.93c0,0-2.63,1.75-5.6,1.46C328.38,176.98,331.1,177.15,333.19,176.85z"/>
			<polygon id="XMLID_00000142145488914956721720000000115808306105233083_" style="fill:#263238;" points="323.86,158.51 
				333.56,159.96 333.17,160.75 323.86,159.35 			"/>
			<g id="XMLID_00000108284738077289095350000014241643924711477948_">
				<g id="XMLID_00000090973437520432186330000011505327086459164858_">
					<g id="XMLID_00000007414679553904424180000017593972616400188072_">
						<path id="XMLID_00000035521043200419967590000016592792539979568031_" style="fill:#263238;" d="M324.52,150.94
							c0.41,0.07,0.83,0.04,1.23-0.09c-0.36,0.9-0.02,2.04,0.67,2.63c0.68,0.59,1.63,0.67,2.45,0.37c-0.3,0.58-0.39,1.29-0.27,1.95
							c0.26,1.37,1.6,2.56,2.83,2.35c0.06,1.46,0.07,2.89,1.43,3.56c0,0,0.86-3.86,3.69-3.38c2.84,0.49,3.22,4.67,1.43,7.21
							c-1.78,2.52-3.44,1.58-3.46,1.57c0.17,0.1,0.22,1.33,0.28,1.56c0.18,0.72,0.42,1.44,0.73,2.11c0.61,1.35,1.49,2.55,2.55,3.45
							c1.48,1.26,3.28,2.15,5.12,1.64c1.6-0.44,3.05-1.71,3.73-3.46c0.17-0.44,0.31-0.92,0.61-1.25c0.37-0.41,0.91-0.51,1.39-0.69
							c1.11-0.44,2.04-1.45,2.48-2.71c0.44-1.26,0.37-2.74-0.17-3.94c1.34-0.39,2.44-1.71,2.74-3.26c0.3-1.56-0.23-3.28-1.3-4.29
							c1.6-1.13,2.43-3.54,1.93-5.63c-0.42-1.79-1.72-3.07-3.23-3.57c-1.1-0.37-0.68-0.57-1.02-1.81c-0.23-0.85-0.67-1.62-1.27-2.19
							c-1.03-0.97-2.49-1.28-3.76-0.81c-0.24-1.62-1.37-2.95-2.73-3.38c-0.62-0.2-1.3-0.27-1.93-0.09
							c-0.45,0.14-1.38,0.62-1.55,1.12c-0.57-0.65-0.76-1.51-1.46-2.1c-0.71-0.6-1.59-0.95-2.48-0.95c-1.47,0.01-2.9,0.98-3.62,2.45
							c-0.98-1.18-2.39-1.92-3.81-1.85c-1.42,0.07-2.81,1-3.47,2.45c-0.66,1.45-0.5,3.38,0.47,4.58c-0.88,0.42-1.68,1.13-2.11,2.11
							c-0.46,1.06-0.4,2.39,0.3,3.29c0.34,0.44,0.56,0.73,1.07,0.92C324.17,150.86,324.34,150.91,324.52,150.94z"/>
					</g>
				</g>
				<g id="XMLID_00000083786837535063026520000000152107780502527142_">
					<g id="XMLID_00000019659827481760320960000005159160178806329750_">
						<path id="XMLID_00000173127497510530866300000008506592379268351661_" style="fill:#263238;" d="M332.79,163.92l0.1-4.37
							c-1.05-0.03-1.92,0.92-1.95,2.13C330.92,162.88,331.74,163.88,332.79,163.92z"/>
					</g>
				</g>
			</g>
		</g>
	</g>
</g>
</svg>
