<?xml version="1.0" encoding="utf-8"?>
<!-- Generator: Adobe Illustrator 27.0.0, SVG Export Plug-In . SVG Version: 6.00 Build 0)  -->
<svg version="1.1" xmlns="http://www.w3.org/2000/svg" xmlns:xlink="http://www.w3.org/1999/xlink" x="0px" y="0px"
	 viewBox="0 0 393 454" style="enable-background:new 0 0 393 454;" xml:space="preserve">
<g id="Floor">
</g>
<g id="Shadows">
</g>
<g id="Plant">
</g>
<g id="Device">
</g>
<g id="Window">
</g>
<g id="Magnifying_Glass">
</g>
<g id="Character">
	<g>
		<g>
			<path style="fill:#AAFF00;" d="M317.91,44.43C264.99,6.39,174.65-3.44,127.56,12.44C42.53,41.12,28.88,96.85,29.83,146.67
				c0.95,49.82,64.77,92.6,81.77,136.15c17,43.55,48.18,102.08,108.38,84.15c60.2-17.93,57.62-82.75,75.86-126.52
				c18.24-43.77,65.94-88.65,63.36-128.83C357.38,83.57,341.3,61.25,317.91,44.43z"/>
			<path style="opacity:0.7;fill:#FFFFFF;" d="M317.91,44.43C264.99,6.39,174.65-3.44,127.56,12.44
				C42.53,41.12,28.88,96.85,29.83,146.67c0.95,49.82,64.77,92.6,81.77,136.15c17,43.55,48.18,102.08,108.38,84.15
				c60.2-17.93,57.62-82.75,75.86-126.52c18.24-43.77,65.94-88.65,63.36-128.83C357.38,83.57,341.3,61.25,317.91,44.43z"/>
		</g>
		<g>
			<path style="opacity:0.2;" d="M174.54,205.74H27.12c-4.72,0-8.55-3.83-8.55-8.55V90.29c0-4.72,3.83-8.55,8.55-8.55h147.42
				c4.72,0,8.55,3.83,8.55,8.55v106.9C183.09,201.91,179.26,205.74,174.54,205.74z"/>
			<path style="fill:#FFFFFF;stroke:#1A2E35;stroke-linecap:round;stroke-linejoin:round;stroke-miterlimit:10;" d="M170.47,199.22
				H23.05c-4.72,0-8.55-3.83-8.55-8.55V83.77c0-4.72,3.83-8.55,8.55-8.55h147.42c4.72,0,8.55,3.83,8.55,8.55v106.9
				C179.01,195.39,175.19,199.22,170.47,199.22z"/>
			<g>
				<g>
					<g>
						<g>
							<path style="fill:#AAFF00;stroke:#1A2E35;stroke-linecap:round;stroke-linejoin:round;stroke-miterlimit:10;" d="
								M67.71,131.91l-35.19,11.43c-6.32-19.44,4.32-40.31,23.76-46.63c3.89-1.26,7.35-1.81,11.43-1.81V131.91z"/>
						</g>
					</g>
					<g>
						<g>
							<path style="fill:#FFFFFF;stroke:#1A2E35;stroke-linecap:round;stroke-linejoin:round;stroke-miterlimit:10;" d="
								M67.71,131.91l21.75,29.94c-16.53,12.01-39.68,8.35-51.69-8.19c-2.4-3.31-3.99-6.43-5.26-10.32L67.71,131.91z"/>
						</g>
					</g>
					<g>
						<g>
							<path style="fill:#1A2E35;stroke:#1A2E35;stroke-linecap:round;stroke-linejoin:round;stroke-miterlimit:10;" d="
								M67.71,131.91l35.19-11.43c5.05,15.55-0.22,31.76-13.44,41.37L67.71,131.91z"/>
						</g>
					</g>
					<g>
						<g>
							<path style="fill:#FFFFFF;stroke:#1A2E35;stroke-linecap:round;stroke-linejoin:round;stroke-miterlimit:10;" d="
								M67.71,131.91v-37c16.35,0,30.14,10.02,35.19,25.57L67.71,131.91z"/>
						</g>
					</g>
				</g>
				
					<circle style="fill:#FFFFFF;stroke:#1A2E35;stroke-linecap:round;stroke-linejoin:round;stroke-miterlimit:10;" cx="67.74" cy="131.91" r="23.07"/>
			</g>
			<g>
				
					<rect x="115.12" y="92.66" style="fill:#AAFF00;stroke:#1A2E35;stroke-linecap:round;stroke-linejoin:round;stroke-miterlimit:10;" width="50.69" height="4.19"/>
				
					<rect x="115.12" y="101.65" style="fill:#1A2E35;stroke:#1A2E35;stroke-linecap:round;stroke-linejoin:round;stroke-miterlimit:10;" width="39.79" height="4.19"/>
				
					<rect x="115.12" y="110.63" style="fill:#FFFFFF;stroke:#1A2E35;stroke-linecap:round;stroke-linejoin:round;stroke-miterlimit:10;" width="29.24" height="4.19"/>
				
					<rect x="115.12" y="119.62" style="fill:#AAFF00;stroke:#1A2E35;stroke-linecap:round;stroke-linejoin:round;stroke-miterlimit:10;" width="41.55" height="4.19"/>
				
					<rect x="115.12" y="128.61" style="fill:#1A2E35;stroke:#1A2E35;stroke-linecap:round;stroke-linejoin:round;stroke-miterlimit:10;" width="19.75" height="4.19"/>
				
					<rect x="115.12" y="137.6" style="fill:#FFFFFF;stroke:#1A2E35;stroke-linecap:round;stroke-linejoin:round;stroke-miterlimit:10;" width="50.69" height="4.19"/>
				
					<rect x="115.12" y="146.59" style="fill:#AAFF00;stroke:#1A2E35;stroke-linecap:round;stroke-linejoin:round;stroke-miterlimit:10;" width="37.33" height="4.19"/>
				
					<rect x="115.12" y="155.58" style="fill:#1A2E35;stroke:#1A2E35;stroke-linecap:round;stroke-linejoin:round;stroke-miterlimit:10;" width="32.62" height="4.19"/>
				
					<rect x="115.12" y="164.56" style="fill:#FFFFFF;stroke:#1A2E35;stroke-linecap:round;stroke-linejoin:round;stroke-miterlimit:10;" width="50.69" height="4.19"/>
			</g>
			<g>
				
					<line style="fill:none;stroke:#1A2E35;stroke-linecap:round;stroke-linejoin:round;stroke-miterlimit:10;" x1="48.87" y1="176.81" x2="88.17" y2="176.81"/>
				
					<line style="fill:none;stroke:#1A2E35;stroke-linecap:round;stroke-linejoin:round;stroke-miterlimit:10;" x1="43.31" y1="182.35" x2="93.73" y2="182.35"/>
			</g>
			<g>
				
					<line style="fill:none;stroke:#1A2E35;stroke-linecap:round;stroke-linejoin:round;stroke-miterlimit:10;" x1="116.46" y1="176.81" x2="155.76" y2="176.81"/>
				
					<line style="fill:none;stroke:#1A2E35;stroke-linecap:round;stroke-linejoin:round;stroke-miterlimit:10;" x1="110.9" y1="182.35" x2="161.32" y2="182.35"/>
			</g>
		</g>
		<g>
			<path style="opacity:0.2;" d="M175.36,365.97H48.49c-4.72,0-8.55-3.83-8.55-8.55v-91.41c0-4.72,3.83-8.55,8.55-8.55h126.87
				c4.72,0,8.55,3.83,8.55,8.55v91.41C183.9,362.14,180.08,365.97,175.36,365.97z"/>
			<path style="fill:#FFFFFF;stroke:#1A2E35;stroke-linecap:round;stroke-linejoin:round;stroke-miterlimit:10;" d="M170.47,360.26
				H43.6c-4.72,0-8.55-3.83-8.55-8.55V260.3c0-4.72,3.83-8.55,8.55-8.55h126.87c4.72,0,8.55,3.83,8.55,8.55v91.41
				C179.01,356.43,175.19,360.26,170.47,360.26z"/>
			<g>
				<g>
					
						<line style="fill:none;stroke:#1A2E35;stroke-linecap:round;stroke-linejoin:round;stroke-miterlimit:10;" x1="44.91" y1="303.34" x2="64.11" y2="303.34"/>
					
						<line style="fill:none;stroke:#1A2E35;stroke-linecap:round;stroke-linejoin:round;stroke-miterlimit:10;" x1="44.91" y1="307.68" x2="75.28" y2="307.68"/>
					
						<line style="fill:none;stroke:#1A2E35;stroke-linecap:round;stroke-linejoin:round;stroke-miterlimit:10;" x1="44.91" y1="312.02" x2="64.11" y2="312.02"/>
					
						<line style="fill:none;stroke:#1A2E35;stroke-linecap:round;stroke-linejoin:round;stroke-miterlimit:10;" x1="44.91" y1="316.35" x2="72.61" y2="316.35"/>
					
						<line style="fill:none;stroke:#1A2E35;stroke-linecap:round;stroke-linejoin:round;stroke-miterlimit:10;" x1="44.91" y1="320.69" x2="64.11" y2="320.69"/>
					
						<line style="fill:none;stroke:#1A2E35;stroke-linecap:round;stroke-linejoin:round;stroke-miterlimit:10;" x1="44.91" y1="325.02" x2="78.84" y2="325.02"/>
				</g>
				<g>
					
						<line style="fill:none;stroke:#1A2E35;stroke-linecap:round;stroke-linejoin:round;stroke-miterlimit:10;" x1="93" y1="303.34" x2="112.2" y2="303.34"/>
					
						<line style="fill:none;stroke:#1A2E35;stroke-linecap:round;stroke-linejoin:round;stroke-miterlimit:10;" x1="93" y1="307.68" x2="123.37" y2="307.68"/>
					
						<line style="fill:none;stroke:#1A2E35;stroke-linecap:round;stroke-linejoin:round;stroke-miterlimit:10;" x1="93" y1="312.02" x2="112.2" y2="312.02"/>
					
						<line style="fill:none;stroke:#1A2E35;stroke-linecap:round;stroke-linejoin:round;stroke-miterlimit:10;" x1="93" y1="316.35" x2="120.69" y2="316.35"/>
					
						<line style="fill:none;stroke:#1A2E35;stroke-linecap:round;stroke-linejoin:round;stroke-miterlimit:10;" x1="93" y1="320.69" x2="112.2" y2="320.69"/>
					
						<line style="fill:none;stroke:#1A2E35;stroke-linecap:round;stroke-linejoin:round;stroke-miterlimit:10;" x1="93" y1="325.02" x2="126.93" y2="325.02"/>
				</g>
				<g>
					
						<line style="fill:none;stroke:#1A2E35;stroke-linecap:round;stroke-linejoin:round;stroke-miterlimit:10;" x1="141.09" y1="303.34" x2="160.29" y2="303.34"/>
					
						<line style="fill:none;stroke:#1A2E35;stroke-linecap:round;stroke-linejoin:round;stroke-miterlimit:10;" x1="141.09" y1="307.68" x2="171.45" y2="307.68"/>
					
						<line style="fill:none;stroke:#1A2E35;stroke-linecap:round;stroke-linejoin:round;stroke-miterlimit:10;" x1="141.09" y1="312.02" x2="160.29" y2="312.02"/>
					
						<line style="fill:none;stroke:#1A2E35;stroke-linecap:round;stroke-linejoin:round;stroke-miterlimit:10;" x1="141.09" y1="316.35" x2="168.78" y2="316.35"/>
					
						<line style="fill:none;stroke:#1A2E35;stroke-linecap:round;stroke-linejoin:round;stroke-miterlimit:10;" x1="141.09" y1="320.69" x2="160.29" y2="320.69"/>
					
						<line style="fill:none;stroke:#1A2E35;stroke-linecap:round;stroke-linejoin:round;stroke-miterlimit:10;" x1="141.09" y1="325.02" x2="175.02" y2="325.02"/>
				</g>
				<rect x="43.67" y="289.1" style="fill:#1A2E35;" width="37.17" height="7.43"/>
				<rect x="92.61" y="289.1" style="fill:#1A2E35;" width="37.17" height="7.43"/>
				<rect x="141.55" y="289.1" style="fill:#1A2E35;" width="37.17" height="7.43"/>
				
					<line style="fill:none;stroke:#1A2E35;stroke-linecap:round;stroke-linejoin:round;stroke-miterlimit:10;" x1="86.63" y1="288.66" x2="86.63" y2="326.28"/>
				
					<line style="fill:none;stroke:#1A2E35;stroke-linecap:round;stroke-linejoin:round;stroke-miterlimit:10;" x1="135.17" y1="288.66" x2="135.17" y2="326.28"/>
			</g>
			<g>
				<g>
					<g>
						<path style="fill:#AAFF00;stroke:#1A2E35;stroke-width:0.5;stroke-miterlimit:10;" d="M58.85,271.47l8.04-2.61
							c1.44,4.44-0.99,9.21-5.43,10.66c-4.44,1.44-9.21-0.99-10.66-5.43c-1.44-4.44,0.99-9.21,5.43-10.66
							c0.89-0.29,1.68-0.41,2.61-0.41V271.47z"/>
					</g>
				</g>
				<g>
					<g>
						<path style="fill:#1A2E35;stroke:#1A2E35;stroke-width:0.5;stroke-miterlimit:10;" d="M58.85,271.47v-8.46
							c3.74,0,6.89,2.29,8.04,5.84L58.85,271.47z"/>
					</g>
				</g>
			</g>
			<g>
				<g>
					<g>
						<path style="fill:#AAFF00;stroke:#1A2E35;stroke-width:0.5;stroke-miterlimit:10;" d="M140.27,271.47l8.04-2.61
							c1.44,4.44-0.99,9.21-5.43,10.66s-9.21-0.99-10.66-5.43c-1.44-4.44,0.99-9.21,5.43-10.66c0.89-0.29,1.68-0.41,2.61-0.41
							V271.47z"/>
					</g>
				</g>
				<g>
					<g>
						<path style="fill:#1A2E35;stroke:#1A2E35;stroke-width:0.5;stroke-miterlimit:10;" d="M140.27,271.47v-8.46
							c3.74,0,6.89,2.29,8.04,5.84L140.27,271.47z"/>
					</g>
				</g>
			</g>
			<g>
				<g>
					<g>
						<path style="fill:#AAFF00;stroke:#1A2E35;stroke-width:0.5;stroke-miterlimit:10;" d="M85.99,271.47v8.46
							c-4.67,0-8.46-3.79-8.46-8.46c0-4.67,3.79-8.46,8.46-8.46l0,0V271.47z"/>
					</g>
				</g>
				<g>
					<g>
						<path style="fill:#1A2E35;stroke:#1A2E35;stroke-width:0.5;stroke-miterlimit:10;" d="M85.99,271.47v-8.46
							c4.67,0,8.46,3.79,8.46,8.46c0,4.67-3.79,8.46-8.46,8.46l0,0V271.47z"/>
					</g>
				</g>
			</g>
			<g>
				<g>
					<g>
						<path style="fill:#AAFF00;stroke:#1A2E35;stroke-width:0.5;stroke-miterlimit:10;" d="M113.13,271.47l8.04,2.61
							c-1.44,4.44-6.22,6.87-10.66,5.43c-4.44-1.44-6.87-6.22-5.43-10.66c1.15-3.55,4.31-5.84,8.04-5.84V271.47z"/>
					</g>
				</g>
				<g>
					<g>
						<path style="fill:#1A2E35;stroke:#1A2E35;stroke-width:0.5;stroke-miterlimit:10;" d="M113.13,271.47v-8.46
							c4.67,0,8.46,3.79,8.46,8.46c0,0.93-0.13,1.73-0.41,2.61L113.13,271.47z"/>
					</g>
				</g>
			</g>
			<g>
				<g>
					<g>
						<path style="fill:#AAFF00;stroke:#1A2E35;stroke-width:0.5;stroke-miterlimit:10;" d="M167.42,271.47l8.04,2.61
							c-1.44,4.44-6.22,6.87-10.66,5.43c-4.44-1.44-6.87-6.22-5.43-10.66c1.15-3.55,4.31-5.84,8.04-5.84V271.47z"/>
					</g>
				</g>
				<g>
					<g>
						<path style="fill:#1A2E35;stroke:#1A2E35;stroke-width:0.5;stroke-miterlimit:10;" d="M167.42,271.47v-8.46
							c4.67,0,8.46,3.79,8.46,8.46c0,0.93-0.13,1.73-0.41,2.61L167.42,271.47z"/>
					</g>
				</g>
			</g>
			<g>
				<g>
					<g>
						
							<rect x="161.68" y="348.23" style="fill:#AAFF00;stroke:#1A2E35;stroke-width:0.75;stroke-linecap:round;stroke-linejoin:round;stroke-miterlimit:10;" width="7.4" height="2.5"/>
					</g>
				</g>
				<g>
					<g>
						
							<rect x="153.46" y="335.72" style="fill:#1A2E35;stroke:#1A2E35;stroke-width:0.75;stroke-linecap:round;stroke-linejoin:round;stroke-miterlimit:10;" width="7.4" height="15.02"/>
					</g>
				</g>
				<g>
					<g>
						
							<rect x="145.24" y="341.11" style="fill:#FFFFFF;stroke:#1A2E35;stroke-width:0.75;stroke-linecap:round;stroke-linejoin:round;stroke-miterlimit:10;" width="7.4" height="9.63"/>
					</g>
				</g>
				<g>
					<g>
						
							<rect x="137.02" y="333.6" style="fill:#AAFF00;stroke:#1A2E35;stroke-width:0.75;stroke-linecap:round;stroke-linejoin:round;stroke-miterlimit:10;" width="7.4" height="17.14"/>
					</g>
				</g>
				<g>
					<g>
						
							<rect x="128.8" y="346.31" style="fill:#1A2E35;stroke:#1A2E35;stroke-width:0.75;stroke-linecap:round;stroke-linejoin:round;stroke-miterlimit:10;" width="7.4" height="4.43"/>
					</g>
				</g>
				<g>
					<g>
						
							<rect x="120.58" y="344.96" style="fill:#FFFFFF;stroke:#1A2E35;stroke-width:0.75;stroke-linecap:round;stroke-linejoin:round;stroke-miterlimit:10;" width="7.4" height="5.78"/>
					</g>
				</g>
				<g>
					<g>
						
							<rect x="112.36" y="339.19" style="fill:#AAFF00;stroke:#1A2E35;stroke-width:0.75;stroke-linecap:round;stroke-linejoin:round;stroke-miterlimit:10;" width="7.4" height="11.55"/>
					</g>
				</g>
				<g>
					<g>
						
							<rect x="104.14" y="348.81" style="fill:#1A2E35;stroke:#1A2E35;stroke-width:0.75;stroke-linecap:round;stroke-linejoin:round;stroke-miterlimit:10;" width="7.4" height="1.93"/>
					</g>
				</g>
				<g>
					<g>
						
							<rect x="95.92" y="335.72" style="fill:#FFFFFF;stroke:#1A2E35;stroke-width:0.75;stroke-linecap:round;stroke-linejoin:round;stroke-miterlimit:10;" width="7.4" height="15.02"/>
					</g>
				</g>
				<g>
					<g>
						
							<rect x="87.69" y="338.61" style="fill:#AAFF00;stroke:#1A2E35;stroke-width:0.75;stroke-linecap:round;stroke-linejoin:round;stroke-miterlimit:10;" width="7.4" height="12.13"/>
					</g>
				</g>
				<g>
					<g>
						
							<rect x="79.47" y="350.16" style="fill:#1A2E35;stroke:#1A2E35;stroke-width:0.75;stroke-linecap:round;stroke-linejoin:round;stroke-miterlimit:10;" width="7.4" height="0.58"/>
					</g>
				</g>
				<g>
					<g>
						
							<rect x="71.25" y="349.97" style="fill:#FFFFFF;stroke:#1A2E35;stroke-width:0.75;stroke-linecap:round;stroke-linejoin:round;stroke-miterlimit:10;" width="7.4" height="0.77"/>
					</g>
				</g>
				<g>
					<g>
						
							<rect x="63.03" y="341.11" style="fill:#AAFF00;stroke:#1A2E35;stroke-width:0.75;stroke-linecap:round;stroke-linejoin:round;stroke-miterlimit:10;" width="7.4" height="9.63"/>
					</g>
				</g>
				<g>
					<g>
						
							<rect x="54.81" y="348.81" style="fill:#1A2E35;stroke:#1A2E35;stroke-width:0.75;stroke-linecap:round;stroke-linejoin:round;stroke-miterlimit:10;" width="7.4" height="1.93"/>
					</g>
				</g>
				<g>
					<g>
						
							<rect x="46.59" y="346.89" style="fill:#FFFFFF;stroke:#1A2E35;stroke-width:0.75;stroke-linecap:round;stroke-linejoin:round;stroke-miterlimit:10;" width="7.4" height="3.85"/>
					</g>
				</g>
			</g>
		</g>
		<g>
			<path style="opacity:0.2;" d="M369.95,287.51H222.53c-4.72,0-8.55-3.83-8.55-8.55v-106.9c0-4.72,3.83-8.55,8.55-8.55h147.42
				c4.72,0,8.55,3.83,8.55,8.55v106.9C378.5,283.68,374.67,287.51,369.95,287.51z"/>
			<path style="fill:#FFFFFF;stroke:#1A2E35;stroke-linecap:round;stroke-linejoin:round;stroke-miterlimit:10;" d="M364.25,280.99
				H216.83c-4.72,0-8.55-3.83-8.55-8.55v-106.9c0-4.72,3.83-8.55,8.55-8.55h147.42c4.72,0,8.55,3.83,8.55,8.55v106.9
				C372.8,277.16,368.97,280.99,364.25,280.99z"/>
			<g>
				<g>
					<g>
						
							<rect x="353.91" y="254" style="fill:#AAFF00;stroke:#1A2E35;stroke-width:0.75;stroke-linecap:round;stroke-linejoin:round;stroke-miterlimit:10;" width="8.53" height="9.46"/>
					</g>
				</g>
				<g>
					<g>
						
							<rect x="344.42" y="206.7" style="fill:#1A2E35;stroke:#1A2E35;stroke-width:0.75;stroke-linecap:round;stroke-linejoin:round;stroke-miterlimit:10;" width="8.53" height="56.77"/>
					</g>
				</g>
				<g>
					<g>
						
							<rect x="334.94" y="227.08" style="fill:#FFFFFF;stroke:#1A2E35;stroke-width:0.75;stroke-linecap:round;stroke-linejoin:round;stroke-miterlimit:10;" width="8.53" height="36.39"/>
					</g>
				</g>
				<g>
					<g>
						
							<rect x="325.46" y="198.69" style="fill:#AAFF00;stroke:#1A2E35;stroke-width:0.75;stroke-linecap:round;stroke-linejoin:round;stroke-miterlimit:10;" width="8.53" height="64.77"/>
					</g>
				</g>
				<g>
					<g>
						
							<rect x="315.98" y="246.73" style="fill:#1A2E35;stroke:#1A2E35;stroke-width:0.75;stroke-linecap:round;stroke-linejoin:round;stroke-miterlimit:10;" width="8.53" height="16.74"/>
					</g>
				</g>
				<g>
					<g>
						
							<rect x="306.5" y="241.63" style="fill:#FFFFFF;stroke:#1A2E35;stroke-width:0.75;stroke-linecap:round;stroke-linejoin:round;stroke-miterlimit:10;" width="8.53" height="21.83"/>
					</g>
				</g>
				<g>
					<g>
						
							<rect x="297.01" y="219.8" style="fill:#AAFF00;stroke:#1A2E35;stroke-width:0.75;stroke-linecap:round;stroke-linejoin:round;stroke-miterlimit:10;" width="8.53" height="43.67"/>
					</g>
				</g>
				<g>
					<g>
						
							<rect x="287.53" y="256.19" style="fill:#1A2E35;stroke:#1A2E35;stroke-width:0.75;stroke-linecap:round;stroke-linejoin:round;stroke-miterlimit:10;" width="8.53" height="7.28"/>
					</g>
				</g>
				<g>
					<g>
						
							<rect x="278.05" y="206.7" style="fill:#FFFFFF;stroke:#1A2E35;stroke-width:0.75;stroke-linecap:round;stroke-linejoin:round;stroke-miterlimit:10;" width="8.53" height="56.77"/>
					</g>
				</g>
				<g>
					<g>
						
							<rect x="268.57" y="217.62" style="fill:#AAFF00;stroke:#1A2E35;stroke-width:0.75;stroke-linecap:round;stroke-linejoin:round;stroke-miterlimit:10;" width="8.53" height="45.85"/>
					</g>
				</g>
				<g>
					<g>
						
							<rect x="259.09" y="261.28" style="fill:#1A2E35;stroke:#1A2E35;stroke-width:0.75;stroke-linecap:round;stroke-linejoin:round;stroke-miterlimit:10;" width="8.53" height="2.18"/>
					</g>
				</g>
				<g>
					<g>
						
							<rect x="249.6" y="260.55" style="fill:#FFFFFF;stroke:#1A2E35;stroke-width:0.75;stroke-linecap:round;stroke-linejoin:round;stroke-miterlimit:10;" width="8.53" height="2.91"/>
					</g>
				</g>
				<g>
					<g>
						
							<rect x="240.12" y="227.08" style="fill:#AAFF00;stroke:#1A2E35;stroke-width:0.75;stroke-linecap:round;stroke-linejoin:round;stroke-miterlimit:10;" width="8.53" height="36.39"/>
					</g>
				</g>
				<g>
					<g>
						
							<rect x="230.64" y="256.19" style="fill:#1A2E35;stroke:#1A2E35;stroke-width:0.75;stroke-linecap:round;stroke-linejoin:round;stroke-miterlimit:10;" width="8.53" height="7.28"/>
					</g>
				</g>
				<g>
					<g>
						
							<rect x="221.16" y="248.91" style="fill:#FFFFFF;stroke:#1A2E35;stroke-width:0.75;stroke-linecap:round;stroke-linejoin:round;stroke-miterlimit:10;" width="8.53" height="14.56"/>
					</g>
				</g>
			</g>
			<g>
				<rect x="222.27" y="182.9" style="fill:#AAFF00;stroke:#1A2E35;stroke-miterlimit:10;" width="140.73" height="7.2"/>
				<rect x="259.34" y="183.43" style="fill:#1A2E35;stroke:#1A2E35;stroke-miterlimit:10;" width="22.82" height="6.15"/>
				<rect x="283.09" y="183.43" style="fill:#FFFFFF;stroke:#1A2E35;stroke-miterlimit:10;" width="42.87" height="6.15"/>
			</g>
		</g>
		<g>
			<path style="opacity:0.2;" d="M352.01,129.89H235.97c-4.72,0-8.55-3.83-8.55-8.55V38.1c0-4.72,3.83-8.55,8.55-8.55h116.03
				c4.72,0,8.55,3.83,8.55,8.55v83.24C360.55,126.06,356.73,129.89,352.01,129.89z"/>
			<path style="fill:#FFFFFF;stroke:#1A2E35;stroke-linecap:round;stroke-linejoin:round;stroke-miterlimit:10;" d="M347.12,123.37
				H231.08c-4.72,0-8.55-3.83-8.55-8.55V31.58c0-4.72,3.83-8.55,8.55-8.55h116.03c4.72,0,8.55,3.83,8.55,8.55v83.24
				C355.67,119.54,351.84,123.37,347.12,123.37z"/>
			<g>
				
					<line style="fill:none;stroke:#1A2E35;stroke-width:0.5;stroke-miterlimit:10;" x1="228.71" y1="113.98" x2="353.7" y2="113.98"/>
				<g>
					<g>
						
							<line style="fill:none;stroke:#1A2E35;stroke-width:0.5;stroke-miterlimit:10;" x1="228.71" y1="113.98" x2="228.71" y2="115.83"/>
						
							<line style="fill:none;stroke:#1A2E35;stroke-width:0.5;stroke-miterlimit:10;" x1="237.04" y1="113.98" x2="237.04" y2="115.83"/>
						
							<line style="fill:none;stroke:#1A2E35;stroke-width:0.5;stroke-miterlimit:10;" x1="245.38" y1="113.98" x2="245.38" y2="115.83"/>
						
							<line style="fill:none;stroke:#1A2E35;stroke-width:0.5;stroke-miterlimit:10;" x1="253.71" y1="113.98" x2="253.71" y2="115.83"/>
						
							<line style="fill:none;stroke:#1A2E35;stroke-width:0.5;stroke-miterlimit:10;" x1="262.04" y1="113.98" x2="262.04" y2="115.83"/>
						
							<line style="fill:none;stroke:#1A2E35;stroke-width:0.5;stroke-miterlimit:10;" x1="270.38" y1="113.98" x2="270.38" y2="115.83"/>
						
							<line style="fill:none;stroke:#1A2E35;stroke-width:0.5;stroke-miterlimit:10;" x1="278.71" y1="113.98" x2="278.71" y2="115.83"/>
						
							<line style="fill:none;stroke:#1A2E35;stroke-width:0.5;stroke-miterlimit:10;" x1="287.04" y1="113.98" x2="287.04" y2="115.83"/>
						
							<line style="fill:none;stroke:#1A2E35;stroke-width:0.5;stroke-miterlimit:10;" x1="295.37" y1="113.98" x2="295.37" y2="115.83"/>
						
							<line style="fill:none;stroke:#1A2E35;stroke-width:0.5;stroke-miterlimit:10;" x1="303.71" y1="113.98" x2="303.71" y2="115.83"/>
						
							<line style="fill:none;stroke:#1A2E35;stroke-width:0.5;stroke-miterlimit:10;" x1="312.04" y1="113.98" x2="312.04" y2="115.83"/>
						
							<line style="fill:none;stroke:#1A2E35;stroke-width:0.5;stroke-miterlimit:10;" x1="320.37" y1="113.98" x2="320.37" y2="115.83"/>
						
							<line style="fill:none;stroke:#1A2E35;stroke-width:0.5;stroke-miterlimit:10;" x1="328.71" y1="113.98" x2="328.71" y2="115.83"/>
						
							<line style="fill:none;stroke:#1A2E35;stroke-width:0.5;stroke-miterlimit:10;" x1="337.04" y1="113.98" x2="337.04" y2="115.83"/>
						
							<line style="fill:none;stroke:#1A2E35;stroke-width:0.5;stroke-miterlimit:10;" x1="345.37" y1="113.98" x2="345.37" y2="115.83"/>
						
							<line style="fill:none;stroke:#1A2E35;stroke-width:0.5;stroke-miterlimit:10;" x1="353.7" y1="113.98" x2="353.7" y2="115.83"/>
					</g>
				</g>
			</g>
			<g>
				<g>
					<path style="fill:#AAFF00;" d="M232.88,112.48h116.66V96.35l-8.25-15.96c-0.06-0.11-0.09-0.23-0.11-0.35l-7.34-47.33
						c-0.18-1.17-1.63-1.14-1.78,0.03l-7.46,57.78c-0.04,0.29-0.18,0.55-0.39,0.72l-7.19,5.57c-0.44,0.34-1.03,0.17-1.28-0.36
						l-7.24-14.95c-0.3-0.62-1.04-0.72-1.45-0.19l-7.49,9.67l-8.33,10.75l-8.33-10.75l-7.34-9.47c-0.45-0.58-1.27-0.4-1.51,0.33
						l-7.81,24.19l-8.33-43.11l-8.33,47.41l-8.33-6.45l-6.6-18.73c-0.37-1.06-1.73-0.75-1.73,0.4V112.48z"/>
				</g>
			</g>
			<g>
				<g>
					<path style="fill:#1A2E35;" d="M349.54,112.5H232.88V98.64l8.25-13.73c0.06-0.09,0.09-0.2,0.11-0.3l7.34-40.7
						c0.18-1,1.63-0.98,1.78,0.03l7.46,49.69c0.04,0.25,0.18,0.48,0.39,0.62l7.19,4.79c0.44,0.29,1.03,0.15,1.28-0.31l7.24-12.86
						c0.3-0.54,1.04-0.62,1.45-0.16l7.49,8.31l8.33,9.25l8.33-9.25l7.34-8.15c0.45-0.5,1.27-0.35,1.51,0.29l7.81,20.8h8.33l8.33,3.7
						l8.33-5.55L347.8,89c0.37-0.91,1.73-0.65,1.73,0.34V112.5z"/>
				</g>
			</g>
			<g>
				<g>
					
						<line style="fill:none;stroke:#1A2E35;stroke-linecap:round;stroke-linejoin:round;stroke-miterlimit:10;" x1="296.05" y1="36.42" x2="321.87" y2="36.42"/>
					
						<line style="fill:none;stroke:#1A2E35;stroke-linecap:round;stroke-linejoin:round;stroke-miterlimit:10;" x1="296.05" y1="42.46" x2="321.87" y2="42.46"/>
					
						<line style="fill:none;stroke:#1A2E35;stroke-linecap:round;stroke-linejoin:round;stroke-miterlimit:10;" x1="296.05" y1="48.51" x2="321.87" y2="48.51"/>
					
						<line style="fill:none;stroke:#1A2E35;stroke-linecap:round;stroke-linejoin:round;stroke-miterlimit:10;" x1="296.05" y1="54.55" x2="321.87" y2="54.55"/>
					
						<line style="fill:none;stroke:#1A2E35;stroke-linecap:round;stroke-linejoin:round;stroke-miterlimit:10;" x1="296.05" y1="60.6" x2="321.87" y2="60.6"/>
					
						<line style="fill:none;stroke:#1A2E35;stroke-linecap:round;stroke-linejoin:round;stroke-miterlimit:10;" x1="296.05" y1="66.64" x2="321.87" y2="66.64"/>
				</g>
				<g>
					
						<line style="fill:none;stroke:#1A2E35;stroke-linecap:round;stroke-linejoin:round;stroke-miterlimit:10;" x1="290.19" y1="36.42" x2="293.41" y2="36.42"/>
					
						<line style="fill:none;stroke:#1A2E35;stroke-linecap:round;stroke-linejoin:round;stroke-miterlimit:10;" x1="290.19" y1="42.46" x2="293.41" y2="42.46"/>
					
						<line style="fill:none;stroke:#1A2E35;stroke-linecap:round;stroke-linejoin:round;stroke-miterlimit:10;" x1="290.19" y1="48.51" x2="293.41" y2="48.51"/>
					
						<line style="fill:none;stroke:#1A2E35;stroke-linecap:round;stroke-linejoin:round;stroke-miterlimit:10;" x1="290.19" y1="54.55" x2="293.41" y2="54.55"/>
					
						<line style="fill:none;stroke:#1A2E35;stroke-linecap:round;stroke-linejoin:round;stroke-miterlimit:10;" x1="290.19" y1="60.6" x2="293.41" y2="60.6"/>
					
						<line style="fill:none;stroke:#1A2E35;stroke-linecap:round;stroke-linejoin:round;stroke-miterlimit:10;" x1="290.19" y1="66.64" x2="293.41" y2="66.64"/>
				</g>
			</g>
		</g>
		<g>
			<ellipse style="fill:#AAFF00;" cx="194.56" cy="416.15" rx="65.87" ry="32.69"/>
			<ellipse style="opacity:0.5;fill:#FFFFFF;" cx="194.56" cy="416.15" rx="65.87" ry="32.69"/>
		</g>
		<g>
			<path style="fill:#FFFFFF;stroke:#1A2E35;stroke-linecap:round;stroke-linejoin:round;stroke-miterlimit:10;" d="M172.43,169.73
				c0,0-16.9,60.31-16.9,64.96c0,3.95,5.53,11.85,11.65,8.69c6.12-3.16,7.51-13.04,7.51-13.04L172.43,169.73z"/>
			<path style="fill:#FFFFFF;stroke:#1A2E35;stroke-linecap:round;stroke-linejoin:round;stroke-miterlimit:10;" d="M217.67,416.8
				c0,0-8.65,11.69-9.3,16.59c-0.65,4.91,6.03,5.32,8.98,3.03c2.94-2.29,9.09-17.25,9.09-17.25L217.67,416.8z"/>
			<path style="fill:#FFFFFF;stroke:#1A2E35;stroke-linecap:round;stroke-linejoin:round;stroke-miterlimit:10;" d="M170.44,388.66
				c0,0-14.81,6.22-14.81,9.78c0,3.56,7.7,2.67,13.33,0.59c5.63-2.07,14.52-5.63,14.52-5.63S174.89,387.77,170.44,388.66z"/>
			<g>
				<path style="fill:#1A2E35;stroke:#1A2E35;stroke-linecap:round;stroke-linejoin:round;stroke-miterlimit:10;" d="M175.08,247.93
					l-0.49,19.26c0,0-3.85,35.26-5.63,54.22s3.85,62.51,3.85,62.51l-2.67,2.67v2.67l13.33,4.15c0,0,1.19-5.63,1.19-8.3
					c0-2.67,0-4.44,0-4.44l13.92-83.25c0,0,10.96,84.14,12.74,93.92c1.78,9.78,4.44,20.15,4.44,20.15l-0.89,2.96l1.19,5.33
					l9.18,2.37c0,0,2.07-2.67,2.67-8c0.59-5.33,0.89-17.78,0.89-17.78s-0.59-43.25,1.48-72.59c2.07-29.33-0.59-54.22-0.59-54.22
					L228.21,250C228.21,250,202.83,260.37,175.08,247.93z"/>
				<g>
					<polyline style="fill:none;stroke:#FFFFFF;stroke-linecap:round;stroke-linejoin:round;stroke-miterlimit:10;" points="
						198.59,297.41 197.11,286.44 191.18,280.22 					"/>
					<path style="fill:none;stroke:#FFFFFF;stroke-linecap:round;stroke-linejoin:round;stroke-miterlimit:10;" d="M219.33,258.59
						c0,0-4.15,7.7,7.11,11.26"/>
					
						<line style="fill:none;stroke:#FFFFFF;stroke-linecap:round;stroke-linejoin:round;stroke-miterlimit:10;" x1="226.44" y1="273.41" x2="226.44" y2="410.28"/>
					<path style="fill:none;stroke:#FFFFFF;stroke-linecap:round;stroke-linejoin:round;stroke-miterlimit:10;" d="M189.11,260.37
						l1.19,7.11c0,0-2.96,5.33-1.78,7.7"/>
				</g>
			</g>
			<path style="fill:#FFFFFF;stroke:#1A2E35;stroke-linecap:round;stroke-linejoin:round;stroke-miterlimit:10;" d="M195.04,162.05
				c0,0-22.21,6.5-22.61,7.69c-0.4,1.18,2.65,78.2,2.65,78.2s5.93,9.09,22.12,10.47c16.2,1.38,31.6-7.11,31.6-7.11l10.67-70.12
				c0,0-25.48-17.38-27.26-17.78C210.44,163,199.98,160.66,195.04,162.05z"/>
			<path style="fill:#1A2E35;stroke:#1A2E35;stroke-linecap:round;stroke-linejoin:round;stroke-miterlimit:10;" d="M193.51,176.86
				l5.28,12.94l9.02-10.21c0,0-0.68-6.47-6.64-7.15C195.21,171.75,193.51,176.86,193.51,176.86z"/>
			<path style="fill:#FFFFFF;stroke:#1A2E35;stroke-linecap:round;stroke-linejoin:round;stroke-miterlimit:10;" d="M195.04,162.05
				l-9.36,14.81c0,0,5.45-1.36,8,0.85c2.55,2.21,5.45,4.6,5.45,4.6s4.43-3.57,8-2.38c3.57,1.19,6.81,3.75,6.81,3.75
				s2.21-14.64-0.68-21.28S201.17,153.36,195.04,162.05z"/>
			<path style="fill:#FFFFFF;stroke:#1A2E35;stroke-linecap:round;stroke-linejoin:round;stroke-miterlimit:10;" d="M197.42,163.75
				c0,0-0.51,7.49-0.17,12.94c0.34,5.45,2.04,6.64,4.09,3.06c2.04-3.57,6.64-14.47,6.64-17.53c0-3.06,0.34-5.79,0.34-5.79
				S201.17,164.09,197.42,163.75z"/>
			<polygon style="fill:#1A2E35;stroke:#1A2E35;stroke-linecap:round;stroke-linejoin:round;stroke-miterlimit:10;" points="
				198.79,189.79 189.93,234.91 195.89,249.89 203.21,237.63 			"/>
			<g>
				<g>
					<path style="fill:#FFFFFF;stroke:#1A2E35;stroke-linecap:round;stroke-linejoin:round;stroke-miterlimit:10;" d="
						M216.17,230.94c0,0-19.95-12.05-21.73-13.63c-1.78-1.58-1.78-0.4-3.16,0.39c-1.38,0.79-6.52,6.91-7.51,8.89
						c-0.99,1.98-2.57,4.74-0.59,5.14c1.98,0.4,3.56-3.36,3.56-3.95c0-0.59,2.96-3.95,2.96-3.95s-2.96,7.11-1.98,7.7
						c0.99,0.59,7.7,3.36,9.09,3.36c1.38,0,2.37-2.57,2.37-2.57s1.98,2.57,3.95,2.37c1.98-0.2,3.36-1.18,3.36-1.18l6.72,5.33
						L216.17,230.94z"/>
					<path style="fill:#FFFFFF;stroke:#1A2E35;stroke-linecap:round;stroke-linejoin:round;stroke-miterlimit:10;" d="
						M216.17,230.94c0,0-2.48-1.5-5.77-3.51l-2.92,6.86l5.73,4.55L216.17,230.94z"/>
					<path style="fill:none;stroke:#1A2E35;stroke-linecap:round;stroke-linejoin:round;stroke-miterlimit:10;" d="M190.29,232.92
						c0,0,0.59-6.32,3.16-9.88"/>
					<path style="fill:none;stroke:#1A2E35;stroke-linecap:round;stroke-linejoin:round;stroke-miterlimit:10;" d="M193.65,233.71
						c0,0,1.38-5.53,4.15-8.69"/>
				</g>
				<g>
					<path style="fill:#FFFFFF;stroke:#1A2E35;stroke-linecap:round;stroke-linejoin:round;stroke-miterlimit:10;" d="
						M231.18,184.73c0,0-7.51,6.12-9.28,16l12.44,35.35c0,0-14.81-6.12-16.59-6.32c-1.78-0.2-8.1,8.49-6.32,10.47
						c1.78,1.98,36.54,21.53,38.71,18.96c2.17-2.57-8.89-72.49-10.07-75.05c-1.19-2.57-0.4-3.95-4.54-4.54"/>
					<path style="fill:#FFFFFF;stroke:#1A2E35;stroke-linecap:round;stroke-linejoin:round;stroke-miterlimit:10;" d="
						M234.34,236.08c0,0,7.11,1.58,9.09,5.33"/>
				</g>
			</g>
			<path style="fill:#AAFF00;stroke:#1A2E35;stroke-linecap:round;stroke-linejoin:round;stroke-miterlimit:10;" d="M154.82,206.96
				l15.87,35.48c0.16,0.36,0.45,0.64,0.81,0.79l22.7,9.32c1.22,0.5,2.46-0.69,2-1.93l-12.7-34.33c-0.45-1.22-1.42-2.18-2.65-2.63
				l-24.13-8.74C155.46,204.45,154.27,205.73,154.82,206.96z"/>
			<g>
				<path style="fill:#FFFFFF;stroke:#1A2E35;stroke-linecap:round;stroke-linejoin:round;stroke-miterlimit:10;" d="M160.79,225.86
					c-0.96-0.19-1.83,0.58-1.74,1.55c0.05,0.57,0.2,1.12,0.55,1.37c0.87,0.62,7.44,1.12,7.19-0.12
					C166.59,227.69,163.2,226.34,160.79,225.86z"/>
				<path style="fill:#FFFFFF;stroke:#1A2E35;stroke-linecap:round;stroke-linejoin:round;stroke-miterlimit:10;" d="M158.72,223.46
					c-1.13-0.23-2.17,0.69-2.07,1.84c0.06,0.68,0.24,1.33,0.65,1.63c1.03,0.73,8.82,1.32,8.52-0.15
					C165.6,225.64,161.58,224.03,158.72,223.46z"/>
				<path style="fill:#FFFFFF;stroke:#1A2E35;stroke-linecap:round;stroke-linejoin:round;stroke-miterlimit:10;" d="M158.1,219.95
					c-1.23-0.25-2.37,0.75-2.25,2.01c0.07,0.73,0.26,1.45,0.71,1.77c1.12,0.8,9.59,1.44,9.27-0.16
					C165.58,222.31,161.21,220.57,158.1,219.95z"/>
				<path style="fill:#FFFFFF;stroke:#1A2E35;stroke-linecap:round;stroke-linejoin:round;stroke-miterlimit:10;" d="M156.82,216.59
					c-1.23-0.25-2.37,0.75-2.25,2.01c0.07,0.73,0.26,1.45,0.71,1.77c1.12,0.8,9.59,1.44,9.27-0.16
					C164.31,218.96,159.93,217.21,156.82,216.59z"/>
			</g>
			<g>
				<g>
					<path style="fill:#FFFFFF;stroke:#1A2E35;stroke-miterlimit:10;" d="M186.62,138.14c0,0,1.32,13.56,4.3,19.84
						c2.98,6.28,3.97,9.26,6.94,9.26c2.98,0,8.6-4.3,11.24-8.27c2.65-3.97,3.64-5.95,3.64-5.95l0.66-1.65c0,0,4.63-3.31,5.62-5.62
						c0.99-2.31-0.99-3.97-4.63-1.98c0,0,1.32-10.25-1.32-16.53C210.43,120.95,190.26,126.9,186.62,138.14z"/>
					<g>
						<path style="fill:#FFFFFF;stroke:#1A2E35;stroke-linecap:round;stroke-linejoin:round;stroke-miterlimit:10;" d="
							M183.01,143.28l22.34,4.56c0,0,0.16,3.46-2.2,4.56c-2.36,1.1-5.35,0.47-7.08-1.1c-1.73-1.57-1.73-4.56-1.73-4.56
							s-1.42-1.1-1.57,0c-0.12,0.87-1.14,3.72-4.36,3.61c-2.11-0.07-3.99-1.51-4.7-3.5C183.38,145.95,183.11,144.77,183.01,143.28z"
							/>
						
							<line style="fill:none;stroke:#1A2E35;stroke-linecap:round;stroke-linejoin:round;stroke-miterlimit:10;" x1="205.36" y1="147.85" x2="214.64" y2="142.97"/>
						
							<line style="fill:none;stroke:#1A2E35;stroke-linecap:round;stroke-linejoin:round;stroke-miterlimit:10;" x1="183.01" y1="143.28" x2="186.63" y2="141.87"/>
						<polyline style="fill:#FFFFFF;stroke:#1A2E35;stroke-linecap:round;stroke-linejoin:round;stroke-miterlimit:10;" points="
							192.93,147.69 191.35,153.51 193.24,153.98 193.71,158.55 196.7,157.76 						"/>
					</g>
				</g>
				<path style="fill:#1A2E35;stroke:#1A2E35;stroke-miterlimit:10;" d="M196.21,116.32c0,0-13.23,10.25-14.55,16.53
					c-1.32,6.28,7.27,8.93,12.89,7.94c5.62-0.99,13.89-6.28,13.89-6.28s-4.63,7.27-0.99,7.6c3.64,0.33,4.96,0,4.96,0
					s-1.98,3.97-0.33,3.97s2.31-2.31,2.31-2.31s4.63-10.91,3.31-20.83C216.38,113.01,204.15,110.04,196.21,116.32z"/>
			</g>
		</g>
	</g>
</g>
</svg>
